<svg xmlns="http://www.w3.org/2000/svg" width="256" height="37" viewBox="0 0 256 37">
    <g fill="#2C65B0" fill-rule="evenodd">
        <path d="M114.048 12.122v-.516c.637-.061.971-.183.971-.501.016-.516-1.077-1.911-2.883-3.913h-.287v3.457c0 .334.121.592.47.746.18.074.636.182.91.21v.517h-5.445v-.516c.273-.016.862-.061 1.061-.137.364-.137.47-.408.47-.744V3.278c0-.334-.09-.577-.47-.743a3.554 3.554 0 0 0-1.06-.258v-.516h5.626v.516c-.274.014-.819.09-1.092.183-.38.121-.47.408-.47.742v3.52h.212c1.894-1.653 3.717-3.505 3.717-4.112 0-.243-.455-.287-1.138-.333v-.516h4.49v.516c-1.17.075-1.744.227-2.274.743-1.444 1.396-1.626 1.654-2.778 2.76 1.123 1.32 2.184 2.687 3.657 4.583.347.44.742.834 1.273 1.06.273.122.592.167.865.183v.516h-5.825zM122.443 10.18c0 .759.364 1.093.82 1.093.516 0 .757-.243 1-.562l.06-2.487c-1.077.408-1.88.774-1.88 1.956m3.626 2.154c-.986 0-1.427-.41-1.729-1h-.047c-.499.544-1.091 1.016-2.288 1.016-1.048 0-1.854-.745-1.854-1.745 0-1.305.744-1.76 1.518-2.048.88-.333 2.064-.622 2.64-.94v-.684c0-.5-.061-1.531-.942-1.531-.393 0-.62.152-.772.288.014.227.197.592.197 1 0 .335-.41.866-1.212.866-.806 0-1.093-.516-1.093-1.016 0-.956 1.654-1.654 2.988-1.654 1.668 0 3.018.272 3.018 2.32 0 1.38-.09 2.974-.09 3.475 0 .182.06.698.546.698.395 0 .53-.654.545-1.214h.547c-.061 1.44-.697 2.169-1.972 2.169M131.185 12.319c-1.47 0-2.17-.774-2.17-2.154V5.811h-1.304v-.697h1.335V2.959h2.124v2.155h2.003v.697h-1.988v4.096c0 .864.137 1.395.895 1.395.53 0 .714-.56.744-1.228h.575c-.059 1.228-.544 2.245-2.214 2.245M133.616 12.122v-.456l3.897-5.992c-1.076 0-2.032 0-2.518.197-.182.078-.516.805-.666 1.486h-.44V5.082h6.174v.395l-3.946 6.053c.366.015.759.015 1.154.015.5 0 .94-.015 1.319-.06.394-.046.593-.288.73-.593.106-.226.349-1.045.423-1.364h.425v2.594h-6.552zM148.396 4.385l-1.38 3.55h2.792l-1.412-3.55zm1.076 7.737v-.5c.532-.031 1.548-.184 1.548-.44 0-.107-.045-.244-.075-.335l-.85-2.2h-3.368c-.182.441-.393 1.079-.515 1.472a2.827 2.827 0 0 0-.152.85c0 .455 1.152.607 1.684.637v.516h-4.34v-.516c.289-.015.744-.108 1.017-.258.395-.228.667-.545.865-1.032 1.048-2.61 2.321-5.81 3.473-8.723h1.245c1.561 3.962 2.943 7.586 3.534 9.026.122.304.32.517.683.729.274.15.667.243.955.258v.516h-5.704z"/>
        <path d="M160.704 7.693c-.622 0-1.123-.289-1.123-.972 0-.333.091-.637.122-.743-.682.015-1.154.576-1.29.789v4.036c0 .334.151.545.424.666.243.108.76.167 1.002.182v.47h-4.658v-.47c.273-.015.455-.045.668-.106.288-.09.395-.334.395-.666V6.646c-.03-.32-.167-.636-.41-.805-.18-.121-.486-.197-.76-.21v-.456l3.232-.182.106.104v1.017h.03c.638-.789 1.29-1.197 2.035-1.197.802 0 1.364.592 1.364 1.455 0 .727-.455 1.32-1.137 1.32M166.076 12.35c-2.532 0-3.73-1.609-3.73-3.763 0-1.926 1.456-3.701 3.836-3.701 1.806 0 2.671.774 2.671 1.804 0 .668-.32 1.123-1.123 1.123-.47 0-1.197-.258-1.197-.91 0-.592.242-.653.242-.94-.045-.349-.121-.531-.593-.531-.759 0-1.47.79-1.47 3.064 0 1.699.833 2.852 1.91 2.852.987 0 1.516-.531 2.004-1.38l.5.363c-.53 1.123-1.625 2.019-3.05 2.019M174.091 12.122v-.47a2.04 2.04 0 0 0 .56-.107c.214-.09.274-.334.274-.666V7.495c0-1.001-.424-1.546-.926-1.546-.865 0-1.333.62-1.471.97v3.884c0 .334.076.545.304.666.165.108.364.167.56.182v.47h-4.094v-.47c.272-.015.454-.045.667-.106.288-.09.394-.334.394-.666V2.535c0-.29-.167-.713-.41-.88-.183-.123-.759-.197-1.03-.212V.987l3.503-.182.106.106V6.13h.03c.576-.56 1.184-1.245 2.488-1.245 1.412 0 2.063.956 2.063 2.398v3.535c0 .332.092.545.365.666.211.093.394.152.667.167v.47h-4.05zM180.755 3.581c-.728 0-1.32-.577-1.32-1.304 0-.728.592-1.305 1.32-1.305.727 0 1.32.577 1.32 1.305 0 .727-.593 1.304-1.32 1.304zm-2.049 8.54v-.47a2.81 2.81 0 0 0 .668-.106c.287-.091.408-.334.408-.666V6.646c-.028-.32-.15-.592-.393-.758-.182-.123-.637-.244-.91-.258v-.455l3.368-.182.106.104v5.689c0 .335.136.577.41.683.227.091.393.167.666.182v.47h-4.323zM186.628 12.319c-1.472 0-2.17-.774-2.17-2.154V5.811h-1.304v-.697h1.334V2.959h2.125v2.155h2.001v.697h-1.986v4.096c0 .864.136 1.395.895 1.395.53 0 .712-.56.742-1.228h.577c-.06 1.228-.545 2.245-2.214 2.245M192.835 5.447c-.715 0-1.214.774-1.244 2.32l2.305-.03c0-1.183-.182-2.29-1.06-2.29m.257 6.903c-2.625 0-3.825-1.67-3.825-3.778 0-1.927 1.353-3.686 3.658-3.686 2.397 0 3.262 1.396 3.262 3.003v.425h-4.597c0 1.972.698 3.048 2.261 3.048.91 0 1.532-.454 2.03-1.304l.502.364c-.607 1.077-1.82 1.928-3.29 1.928M200.787 12.35c-2.533 0-3.73-1.609-3.73-3.763 0-1.926 1.455-3.701 3.836-3.701 1.805 0 2.67.774 2.67 1.804 0 .668-.319 1.123-1.123 1.123-.47 0-1.198-.258-1.198-.91 0-.592.243-.653.243-.94-.044-.349-.121-.531-.592-.531-.759 0-1.47.79-1.47 3.064 0 1.699.833 2.852 1.91 2.852.987 0 1.517-.531 2.002-1.38l.501.363c-.531 1.123-1.624 2.019-3.049 2.019M207.358 12.319c-1.471 0-2.17-.774-2.17-2.154V5.811h-1.303v-.697h1.336V2.959h2.121v2.155h2.005v.697h-1.99v4.096c0 .864.139 1.395.896 1.395.531 0 .715-.56.744-1.228h.577c-.061 1.228-.547 2.245-2.216 2.245M215.37 12.182l-.104-.106v-.926h-.047c-.576.577-1.168 1.184-2.473 1.184-1.41 0-1.987-1.047-1.987-2.472V6.615c0-.38-.151-.592-.394-.759-.182-.121-.5-.197-.774-.212V5.19l3.278-.197.074.104v4.734c0 1 .412 1.517.896 1.517.835 0 1.258-.623 1.41-.925V6.57c-.03-.32-.137-.577-.363-.743-.153-.122-.5-.153-.85-.168V5.19l3.276-.197.107.104v5.524c.03.318.15.56.393.727.183.121.501.151.774.168v.454l-3.216.212zM224.598 7.693c-.62 0-1.121-.289-1.121-.972 0-.333.09-.637.121-.743-.683.015-1.153.576-1.29.789v4.036c0 .334.153.545.425.666.245.108.759.167 1.002.182v.47h-4.658v-.47a2.81 2.81 0 0 0 .67-.106c.286-.09.392-.334.392-.666V6.646c-.03-.32-.167-.636-.41-.805-.182-.121-.484-.197-.757-.21v-.456l3.231-.182.105.104v1.017h.032c.638-.789 1.289-1.197 2.032-1.197.805 0 1.365.592 1.365 1.455 0 .727-.456 1.32-1.139 1.32M229.805 5.447c-.713 0-1.214.774-1.243 2.32l2.306-.03c0-1.183-.184-2.29-1.063-2.29m.258 6.903c-2.625 0-3.823-1.67-3.823-3.778 0-1.927 1.351-3.686 3.657-3.686 2.398 0 3.261 1.396 3.261 3.003v.425h-4.596c0 1.972.697 3.048 2.26 3.048.911 0 1.532-.454 2.033-1.304l.5.364c-.608 1.077-1.82 1.928-3.292 1.928M241.81 2.185c-.576 0-.88.44-.88 1.047 0 .47.227 1.063.972 2.201.636-.577.968-1.26.968-1.928 0-.82-.438-1.32-1.06-1.32zm-1.471 4.87c-.622.485-.896 1.154-.896 1.927 0 1.212 1.002 2.108 2.215 2.108.47 0 .865-.122 1.366-.501a94.44 94.44 0 0 1-2.685-3.534zm3.928 5.067c-.258-.304-.56-.653-.864-1.047-1.108.986-1.958 1.29-3.034 1.29-1.639 0-2.973-.926-2.973-2.55 0-1.334.895-2.243 2.609-3.232-.804-1.136-1.169-1.956-1.169-2.698 0-1.396 1.183-2.336 2.7-2.336 1.412 0 2.292.713 2.292 1.865 0 .866-.394 1.714-1.578 2.534a40.275 40.275 0 0 0 2.246 3.018c.574-.865.968-1.79.968-2.29 0-.304-.467-.44-1.212-.607v-.5h4.278v.5c-.866.091-1.518.152-1.912.575-.395.442-.879 1.67-1.714 2.823.865 1.061 1.334 1.486 1.714 1.699.41.227 1.457.394 2.062.425v.53h-4.413zM112.425 20.516h-.577v4.627h.289c1.713 0 2.366-.91 2.366-2.275 0-1.533-.547-2.352-2.078-2.352m.153 5.265h-.73v3.017c0 .334.122.592.472.744.18.076.862.197 1.137.212v.516h-5.81v-.516c.273-.015 1-.09 1.2-.167.363-.136.468-.41.468-.743v-7.418c0-.333-.09-.592-.469-.743-.29-.122-.926-.243-1.199-.258v-.515h5.598c2.653 0 3.973.849 3.973 2.579 0 2.304-2.275 3.292-4.64 3.292M123.186 25.841c-.621 0-1.122-.288-1.122-.971 0-.334.09-.638.121-.744-.683.015-1.153.577-1.29.79v4.035c0 .334.152.545.425.666.243.108.76.167 1.002.183v.47h-4.658v-.47a2.81 2.81 0 0 0 .668-.107c.287-.09.394-.334.394-.666v-4.233c-.03-.319-.166-.636-.41-.804-.181-.122-.485-.198-.758-.211v-.456l3.231-.182.106.105v1.017h.03c.638-.79 1.29-1.198 2.034-1.198.803 0 1.363.592 1.363 1.456 0 .727-.453 1.32-1.136 1.32M128.726 23.565c-1.23 0-1.486 1.67-1.486 3.11 0 1.79.364 3.292 1.486 3.292 1.061 0 1.44-1.456 1.44-3.262 0-1.577-.288-3.14-1.44-3.14m-.076 6.933c-2.094 0-3.823-1.397-3.823-3.732 0-2.2 1.503-3.733 3.882-3.733 2.429 0 3.87 1.549 3.87 3.687 0 2.11-1.335 3.778-3.929 3.778"/>
        <path d="M135.587 21.73a1.307 1.307 0 0 1-1.319-1.304c0-.729.59-1.305 1.32-1.305.726 0 1.318.576 1.318 1.305 0 .727-.592 1.304-1.319 1.304m.258 10.876c-.622.666-1.396 1.122-2.472 1.122-1.64 0-2.004-.758-2.004-1.47 0-.41.38-1.064 1.08-1.064.467 0 1.09.258 1.09.957 0 .38-.09.698-.166.986.059.015.136.03.165.03.88 0 1.078-1.032 1.078-3.125v-5.157c-.03-.319-.152-.622-.41-.804-.18-.122-.985-.289-1.258-.302v-.456l3.746-.182.106.105v6.31c0 1.259-.242 2.276-.955 3.05M141.9 23.596c-.714 0-1.214.774-1.243 2.32l2.305-.03c0-1.184-.183-2.29-1.062-2.29m.258 6.903c-2.626 0-3.823-1.67-3.823-3.778 0-1.928 1.35-3.687 3.656-3.687 2.398 0 3.262 1.397 3.262 3.004v.425h-4.596c0 1.971.696 3.047 2.26 3.047.91 0 1.531-.453 2.032-1.303l.5.364c-.608 1.076-1.819 1.928-3.291 1.928M149.852 30.498c-2.532 0-3.731-1.608-3.731-3.762 0-1.926 1.457-3.702 3.837-3.702 1.806 0 2.671.774 2.671 1.805 0 .667-.32 1.123-1.123 1.123-.47 0-1.198-.258-1.198-.91 0-.593.243-.654.243-.94-.045-.35-.121-.532-.593-.532-.759 0-1.47.79-1.47 3.065 0 1.698.832 2.852 1.91 2.852.987 0 1.516-.532 2.003-1.38l.501.363c-.53 1.123-1.625 2.018-3.05 2.018M156.424 30.467c-1.471 0-2.17-.774-2.17-2.153v-4.355h-1.303v-.697h1.336v-2.155h2.122v2.155h2.004v.697h-1.99v4.097c0 .863.139 1.394.896 1.394.531 0 .715-.56.744-1.228h.577c-.061 1.228-.547 2.245-2.216 2.245M170.582 30.27v-.516c.273-.015 1.062-.076 1.274-.182.35-.182.501-.44.501-.774v-7.69l-3.535 8.995h-.757c-.093-.319-.609-1.729-.744-2.108l-2.593-7.04v6.281c0 1.26.18 1.791.514 2.063.258.212 1.184.44 1.456.455v.516h-4.657v-.516c.258-.029 1.047-.106 1.412-.364.364-.258.5-.833.5-2.078v-5.233c0-.623-.167-1.03-.472-1.274-.362-.29-.954-.365-1.363-.38v-.515h4.731l2.564 6.842 2.155-5.554a5.957 5.957 0 0 0 .334-1.288h4.535v.516c-.273.014-.848.09-1.122.182-.379.121-.47.408-.47.742v7.448c0 .334.121.577.47.745.181.09.864.196 1.137.211v.516h-5.87zM179.343 28.328c0 .76.364 1.093.82 1.093.515 0 .758-.243 1-.561l.06-2.488c-1.076.408-1.88.774-1.88 1.956m3.626 2.154c-.987 0-1.427-.41-1.73-1h-.045c-.5.545-1.092 1.017-2.291 1.017-1.046 0-1.85-.745-1.85-1.746 0-1.305.742-1.76 1.516-2.047.88-.334 2.064-.622 2.64-.941v-.683c0-.5-.062-1.531-.94-1.531-.393 0-.623.151-.773.288.014.226.194.592.194 1 0 .334-.408.865-1.21.865-.805 0-1.094-.516-1.094-1.015 0-.956 1.653-1.655 2.989-1.655 1.668 0 3.019.272 3.019 2.321 0 1.38-.093 2.973-.093 3.474 0 .182.06.698.547.698.396 0 .53-.654.546-1.214h.546c-.062 1.44-.696 2.17-1.971 2.17M189.905 30.27v-.47a2.04 2.04 0 0 0 .561-.107c.213-.09.274-.334.274-.666v-3.383c0-1.002-.424-1.547-.926-1.547-.865 0-1.334.621-1.47.97v3.884c0 .334.075.545.303.666.165.108.364.167.56.183v.47h-4.095v-.47c.273-.016.455-.046.668-.107.288-.09.394-.334.394-.666v-4.233c-.032-.319-.167-.636-.411-.804-.182-.122-.484-.198-.757-.211v-.456l3.23-.182.107.105v1.032h.03c.576-.56 1.154-1.245 2.458-1.245 1.411 0 2.093.957 2.093 2.398v3.535c0 .333.09.545.364.667.21.092.395.151.668.167v.47h-4.051zM196.95 28.328c0 .76.362 1.093.818 1.093.516 0 .759-.243 1.002-.561l.059-2.488c-1.076.408-1.88.774-1.88 1.956m3.627 2.154c-.988 0-1.427-.41-1.73-1h-.046c-.501.545-1.091 1.017-2.29 1.017-1.048 0-1.852-.745-1.852-1.746 0-1.305.744-1.76 1.518-2.047.88-.334 2.064-.622 2.64-.941v-.683c0-.5-.062-1.531-.942-1.531-.393 0-.622.151-.772.288.013.226.195.592.195 1 0 .334-.41.865-1.212.865-.805 0-1.092-.516-1.092-1.015 0-.956 1.653-1.655 2.989-1.655 1.668 0 3.017.272 3.017 2.321 0 1.38-.091 2.973-.091 3.474 0 .182.06.698.546.698.397 0 .532-.654.547-1.214h.546c-.062 1.44-.696 2.17-1.971 2.17M206.193 23.565c-.774 0-.973.82-.973 1.775 0 1.032.35 1.79.988 1.79.727 0 1-.818 1-1.744 0-.956-.243-1.821-1.015-1.821m1.577 6.978c-.289-.045-1.2-.076-2.321-.076-.35.211-.79.606-.79 1.397 0 .605.547 1.319 1.896 1.319 1.137 0 1.911-.545 1.911-1.638 0-.334-.136-.804-.696-1.002m1.971-7.009c-.302 0-.5-.074-.668-.425-.15.032-.38.304-.485.609.561.44.804 1.091.804 1.698 0 1.336-1.457 2.215-3.048 2.215h-1.064c-.135.121-.332.288-.332.5 0 .623.681.591 1.518.623.484.015 1.455.076 1.82.09.954.046 2.137.76 2.137 2.185 0 1.501-1.274 2.699-4.186 2.699-2.655 0-3.67-.773-3.67-1.896 0-.774.667-1.41 2.244-1.501v-.091c-.652-.198-1.44-.531-1.44-1.395 0-.85.848-1.154 1.456-1.35v-.077c-1.184-.455-1.822-1.121-1.822-2.078 0-1.44 1.442-2.307 3.218-2.307.864 0 1.638.245 1.956.395.15-1.032.744-1.562 1.426-1.562.485 0 .88.319.88.865 0 .47-.38.803-.744.803M214.356 23.596c-.713 0-1.212.774-1.243 2.32l2.304-.03c0-1.184-.18-2.29-1.06-2.29m.257 6.903c-2.624 0-3.823-1.67-3.823-3.778 0-1.928 1.351-3.687 3.658-3.687 2.395 0 3.26 1.397 3.26 3.004v.425h-4.596c0 1.971.699 3.047 2.26 3.047.911 0 1.533-.453 2.033-1.303l.5.364c-.607 1.076-1.82 1.928-3.292 1.928M227.71 30.27v-.47c.212-.016.394-.046.561-.107.213-.09.243-.334.243-.666v-3.383c0-1.002-.38-1.547-.88-1.547-.865 0-1.289.59-1.425.94v3.914c0 .334.06.545.286.666.169.108.32.167.516.183v.47h-3.791v-.47a2.03 2.03 0 0 0 .56-.107c.214-.09.243-.334.243-.666v-3.383c0-1.002-.38-1.547-.88-1.547-.864 0-1.289.59-1.426.94v3.914c0 .334.063.545.289.666.168.108.319.167.516.183v.47h-4.036v-.47c.275-.016.457-.046.668-.107.29-.09.395-.334.395-.666v-4.233c-.03-.319-.167-.636-.41-.804-.182-.122-.486-.198-.758-.211v-.456l3.23-.182.106.105v1.002h.03c.578-.562 1.109-1.215 2.413-1.215.988 0 1.639.503 1.927 1.29h.06c.606-.605 1.229-1.29 2.534-1.29 1.41 0 2.019.987 2.019 2.429v3.504c0 .333.088.545.362.667.213.092.395.151.667.167v.47h-4.02zM235.955 23.596c-.715 0-1.214.774-1.245 2.32l2.306-.03c0-1.184-.182-2.29-1.061-2.29m.258 6.903c-2.626 0-3.825-1.67-3.825-3.778 0-1.928 1.353-3.687 3.658-3.687 2.397 0 3.262 1.397 3.262 3.004v.425h-4.598c0 1.971.699 3.047 2.262 3.047.91 0 1.531-.453 2.03-1.303l.501.364c-.607 1.076-1.82 1.928-3.29 1.928M244.878 30.27v-.47a2.04 2.04 0 0 0 .561-.107c.213-.09.273-.334.273-.666v-3.383c0-1.002-.424-1.547-.925-1.547-.864 0-1.334.621-1.471.97v3.884c0 .334.076.545.302.666.168.108.364.167.563.183v.47h-4.096v-.47c.271-.016.455-.046.666-.107.29-.09.395-.334.395-.666v-4.233c-.03-.319-.166-.636-.41-.804-.18-.122-.486-.198-.76-.211v-.456l3.232-.182.108.105v1.032h.029c.578-.56 1.153-1.245 2.457-1.245 1.412 0 2.095.957 2.095 2.398v3.535c0 .333.09.545.364.667.212.092.393.151.668.167v.47h-4.051zM252.544 30.467c-1.473 0-2.17-.774-2.17-2.153v-4.355h-1.305v-.697h1.335v-2.155h2.124v2.155h2.002v.697h-1.986v4.097c0 .863.136 1.394.895 1.394.53 0 .712-.56.742-1.228h.577c-.06 1.228-.545 2.245-2.214 2.245M7.288 16.392L22.385 1.12h3.644v5.972l-9.891 10.872 10.931 13.597 1.561 1.955L31.234 37h-9.37L10.932 22.857l-3.644 3.805V37H0V1.12h7.288v15.272zm19.41 11.596L36.961 1.12h7.808L56.22 31.108l2.082 5.89h-7.81l-2.6-7.498H33.837l-1.74 5.013-5.399-6.525zm9.22-4.912h9.891l-4.945-12.853-4.946 12.853z"/>
    </g>
</svg>
