<svg xmlns="http://www.w3.org/2000/svg" width="34" height="34" viewBox="0 0 34 34">
    <path fill="#FFF" fill-rule="evenodd" d="M30.15 33.348H4.762A3.808 3.808 0 0 1 .956 29.54V4.155A3.807 3.807 0 0 1 4.763.348h25.386a3.807 3.807 0 0 1 3.807 3.807V29.54a3.807 3.807 0 0 1-3.807 3.81zM17.455 10.502a6.347 6.347 0 1 0 0 12.691 6.347 6.347 0 0 0 0-12.691zm12.693-5.078c0-.7-.568-1.269-1.27-1.269h-3.807a1.27 1.27 0 0 0-1.27 1.27v3.808c0 .7.569 1.269 1.27 1.269h3.807a1.27 1.27 0 0 0 1.27-1.269V5.424zm0 8.885h-2.873c.21.812.333 1.661.333 2.539 0 5.608-4.545 10.154-10.153 10.154-5.608 0-10.153-4.546-10.153-10.154 0-.878.124-1.727.333-2.54H4.763v13.964c0 .7.568 1.267 1.27 1.267H28.88a1.27 1.27 0 0 0 1.27-1.267V14.309z"/>
</svg>
