<svg xmlns="http://www.w3.org/2000/svg" width="34" height="34" viewBox="0 0 34 34">
    <path fill="#FFF" fill-rule="evenodd" d="M28.932 27.973h-4.984V20c0-2.002-.721-3.37-2.525-3.37-1.377 0-2.197.923-2.557 1.813-.132.317-.165.763-.165 1.208v8.322h-4.984s.066-13.504 0-14.902h4.984v2.112c.662-1.016 1.846-2.461 4.493-2.461 3.28 0 5.738 2.13 5.738 6.707v8.544zM8.467 11.037h-.032c-1.673 0-2.755-1.145-2.755-2.574C5.68 7 6.795 5.888 8.5 5.888c1.705 0 2.755 1.113 2.787 2.575 0 1.43-1.082 2.574-2.82 2.574zM5.975 27.973h4.984V13.07H5.975v14.902zM31.517.348H3.394C2.048.348.956 1.407.956 2.713v28.271c0 1.306 1.092 2.364 2.438 2.364h28.123c1.347 0 2.44-1.058 2.44-2.364V2.713c0-1.306-1.093-2.365-2.44-2.365z"/>
</svg>
