<svg xmlns="http://www.w3.org/2000/svg" width="38" height="32" viewBox="0 0 38 32">
    <g fill="#FFF" fill-rule="evenodd">
        <path d="M37.584 5.853c-.007-.006-.013-.013-.022-.017l-.013-.007L26.231.17a1.171 1.171 0 0 0-.238-.085 1.256 1.256 0 0 0-.31-.042c-.434 0-.865.218-1.1.597l-6.515 10.588 8.177 13.287L37.62 6.034a.138.138 0 0 0-.035-.18M14.48 8.816V20.87l10.713 5.357-10.714-17.41M26.802 27.03l8.819 4.41c1.147.574 2.078.172 2.078-.897V9.324L26.802 27.031M12.62 5.87L1.566.343c-.2-.1-.39-.147-.562-.147C.521.196.181.571.181 1.2v23.864c0 .64.468 1.395 1.039 1.681l9.735 4.868c.25.125.488.184.702.184.606 0 1.03-.469 1.03-1.254V5.979a.122.122 0 0 0-.067-.109"/>
    </g>
</svg>
