<svg xmlns="http://www.w3.org/2000/svg" width="40" height="33" viewBox="0 0 40 33">
    <path fill="#FFF" fill-rule="evenodd" d="M12.343 32.48c-4.547 0-8.78-1.35-12.343-3.665.63.075 1.27.114 1.92.114 3.773 0 7.245-1.305 10-3.493-3.523-.066-6.497-2.425-7.521-5.666a7.934 7.934 0 0 0 3.636-.14c-3.683-.75-6.459-4.047-6.459-8v-.103a7.941 7.941 0 0 0 3.648 1.02 8.184 8.184 0 0 1-3.582-6.79c0-1.496.397-2.897 1.09-4.102 3.971 4.936 9.904 8.184 16.596 8.524a8.273 8.273 0 0 1-.209-1.859c0-4.506 3.606-8.16 8.052-8.16 2.316 0 4.408.992 5.877 2.578a16 16 0 0 0 5.114-1.98 8.167 8.167 0 0 1-3.54 4.514 15.929 15.929 0 0 0 4.624-1.285 16.48 16.48 0 0 1-4.018 4.224c.016.35.023.701.023 1.055 0 10.782-8.099 23.214-22.908 23.214"/>
</svg>
