<?xml version="1.0" encoding="UTF-8"?>
<svg width="400px" height="38px" viewBox="0 0 400 38" version="1.1" xmlns="http://www.w3.org/2000/svg" xmlns:xlink="http://www.w3.org/1999/xlink">
    <!-- Generator: Sketch 46 (44423) - http://www.bohemiancoding.com/sketch -->
    <title>logo/blue</title>
    <desc>Created with Sketch.</desc>
    <defs></defs>
    <g id="Symbols" stroke="none" stroke-width="1" fill="none" fill-rule="evenodd">
        <g id="logo/blue" fill="#2C65B0">
            <g id="Group-2" transform="translate(0.000000, -1.000000)">
                <g id="Group" transform="translate(107.636364, 0.000000)">
                    <path d="M6.41159676,12.121625 L6.41159676,11.6055864 C7.04905629,11.5448759 7.38296367,11.4234551 7.38296367,11.1047253 C7.39814128,10.5886866 6.3053535,9.19386446 4.49921815,7.19193797 L4.21236136,7.19193797 L4.21236136,10.6493971 C4.21236136,10.9833044 4.33378222,11.2413238 4.68286721,11.3946176 C4.86348074,11.4689879 5.31880898,11.5767489 5.59352369,11.6055864 L5.59352369,12.121625 L0.147797934,12.121625 L0.147797934,11.6055864 C0.420994878,11.5904088 1.00988607,11.5448759 1.20871273,11.4689879 C1.57297533,11.3323894 1.67921858,11.0607102 1.67921858,10.7252851 L1.67921858,3.27763286 C1.67921858,2.94372549 1.58815293,2.70088376 1.20871273,2.53544783 C0.905160573,2.39884936 0.420994878,2.29108834 0.147797934,2.2774285 L0.147797934,1.76138982 L5.77413722,1.76138982 L5.77413722,2.2774285 C5.50094028,2.29108834 4.95606415,2.36697638 4.68286721,2.45955979 C4.30342701,2.58098066 4.21236136,2.86783745 4.21236136,3.20174482 L4.21236136,6.72143212 L4.42484787,6.72143212 C6.31901335,5.06859061 8.14184407,3.21692243 8.14184407,2.60981811 C8.14184407,2.36697638 7.68651583,2.32296132 7.00352347,2.2774285 L7.00352347,1.76138982 L11.4930599,1.76138982 L11.4930599,2.2774285 C10.3243841,2.35179878 9.74915276,2.50357486 9.21945424,3.01961353 C7.77606372,4.41595346 7.59393242,4.6739728 6.44195197,5.78042042 C7.56509497,7.09935456 8.62600976,8.46685704 10.0982377,10.3625403 C10.445805,10.8026909 10.8404228,11.1973087 11.3716391,11.4234551 C11.644836,11.5448759 11.9635658,11.5904088 12.2367627,11.6055864 L12.2367627,12.121625 L6.41159676,12.121625 Z" id="Fill-1"></path>
                    <path d="M14.8067871,10.1799537 C14.8067871,10.9388341 15.1710497,11.2727414 15.6263779,11.2727414 C16.1424166,11.2727414 16.3837405,11.0298997 16.6265823,10.7111699 L16.6872927,8.22355998 C15.6096825,8.63183764 14.8067871,8.99761799 14.8067871,10.1799537 M18.4327176,12.3336562 C17.4461731,12.3336562 17.0060225,11.9238608 16.7039881,11.3334519 L16.6569375,11.3334519 C16.1575942,11.878328 15.5656675,12.3503516 14.3681542,12.3503516 C13.3208992,12.3503516 12.5149683,11.605131 12.5149683,10.6049267 C12.5149683,9.29965239 13.2586711,8.84432415 14.0327291,8.55746736 C14.9130303,8.22355998 16.0968838,7.93518543 16.6721151,7.61645566 L16.6721151,6.9334633 C16.6721151,6.43260224 16.6114047,5.40204266 15.7311034,5.40204266 C15.3380034,5.40204266 15.1103392,5.55381874 14.9585632,5.69041721 C14.972223,5.91656357 15.1558721,6.28234392 15.1558721,6.69062158 C15.1558721,7.02452895 14.7460766,7.55574523 13.9431812,7.55574523 C13.1372502,7.55574523 12.8503934,7.03970656 12.8503934,6.54036326 C12.8503934,5.58417395 14.5047527,4.88600398 15.8388644,4.88600398 C17.5068835,4.88600398 18.8561729,5.15768317 18.8561729,7.20666025 C18.8561729,8.58630482 18.766625,10.1799537 18.766625,10.6808147 C18.766625,10.862946 18.8258177,11.3789847 19.3130189,11.3789847 C19.7076367,11.3789847 19.8427174,10.7248298 19.857895,10.164776 L20.4042889,10.164776 C20.3435785,11.605131 19.7076367,12.3336562 18.4327176,12.3336562" id="Fill-3"></path>
                    <path d="M23.548634,12.3187822 C22.0779237,12.3187822 21.378236,11.5447242 21.378236,10.1650796 L21.378236,5.81062386 L20.0744795,5.81062386 L20.0744795,5.11397166 L21.410109,5.11397166 L21.410109,2.95875132 L23.5334563,2.95875132 L23.5334563,5.11397166 L25.5369006,5.11397166 L25.5369006,5.81062386 L23.548634,5.81062386 L23.548634,9.90706026 C23.548634,10.7706662 23.6852324,11.3018824 24.4441128,11.3018824 C24.9738113,11.3018824 25.1574604,10.7418287 25.1878156,10.074014 L25.763047,10.074014 C25.7038543,11.3018824 25.2181708,12.3187822 23.548634,12.3187822" id="Fill-5"></path>
                    <path d="M25.9794797,12.121625 L25.9794797,11.6662968 L29.8770894,5.67417717 C28.800997,5.67417717 27.8448077,5.67417717 27.3591242,5.87148607 C27.1769929,5.94889187 26.8430855,6.6758993 26.6928272,7.3573739 L26.2526766,7.3573739 L26.2526766,5.08225046 L32.4269275,5.08225046 L32.4269275,5.47686826 L28.4807495,11.5296983 C28.8465298,11.5448759 29.2396299,11.5448759 29.6342477,11.5448759 C30.1351087,11.5448759 30.5752594,11.5296983 30.9531818,11.4841655 C31.3477996,11.4386327 31.5466263,11.1973087 31.6832247,10.8922388 C31.789468,10.6660924 32.0323097,9.84650161 32.10668,9.52777184 L32.531653,9.52777184 L32.531653,12.121625 L25.9794797,12.121625 Z" id="Fill-7"></path>
                    <path d="M40.7598897,4.38453582 L39.3787273,7.93457833 L42.1714072,7.93457833 L40.7598897,4.38453582 Z M41.8359821,12.1220804 L41.8359821,11.6212193 C42.3671983,11.5908641 43.3840981,11.4375703 43.3840981,11.1810687 C43.3840981,11.0748254 43.3385653,10.938227 43.30821,10.8471613 L42.458264,8.6479259 L39.0903528,8.6479259 C38.9082215,9.08807654 38.6972527,9.72553607 38.5758319,10.1186361 C38.4680708,10.4373659 38.4240558,10.7560957 38.4240558,10.9685822 C38.4240558,11.4239104 39.5760362,11.5756865 40.1072525,11.6060417 L40.1072525,12.1220804 L35.7679744,12.1220804 L35.7679744,11.6060417 C36.0563489,11.5908641 36.5116772,11.4982807 36.7848741,11.3480224 C37.1794919,11.1203582 37.4511711,10.8031462 37.6499978,10.315945 C38.6972527,7.70691421 39.970654,4.50595668 41.1226345,1.5933737 L42.3671983,1.5933737 C43.9289742,5.55472939 45.3101365,9.17914218 45.9020632,10.6194972 C46.0234841,10.9230493 46.220793,11.1355359 46.5850556,11.3480224 C46.8582526,11.4982807 47.2513526,11.5908641 47.5397272,11.6060417 L47.5397272,12.1220804 L41.8359821,12.1220804 Z" id="Fill-9"></path>
                    <path d="M53.0678673,7.69279903 C52.4455854,7.69279903 51.9447243,7.40442448 51.9447243,6.72143212 C51.9447243,6.38752474 52.03579,6.08397258 52.0661452,5.97772933 C51.3846706,5.99290694 50.912647,6.55447843 50.7760485,6.76696494 L50.7760485,10.8026909 C50.7760485,11.1365983 50.9278246,11.347567 51.2010215,11.4689879 C51.4438633,11.5767489 51.9599019,11.6359416 52.2027437,11.6511192 L52.2027437,12.121625 L47.5447358,12.121625 L47.5447358,11.6511192 C47.8179327,11.6359416 48.000064,11.6055864 48.2125505,11.5448759 C48.5009251,11.4553281 48.6071683,11.2109686 48.6071683,10.878579 L48.6071683,6.64554408 C48.5768131,6.32681431 48.4402146,6.0096023 48.1973729,5.84113086 C48.0167594,5.71970999 47.7116895,5.64382195 47.4384925,5.6301621 L47.4384925,5.17483386 L50.6698053,4.99270257 L50.7760485,5.09742806 L50.7760485,6.1143278 L50.8064037,6.1143278 C51.4438633,5.32509218 52.0949826,4.91681453 52.8402032,4.91681453 C53.6430987,4.91681453 54.2046702,5.50874124 54.2046702,6.37234714 C54.2046702,7.09935456 53.7493419,7.69279903 53.0678673,7.69279903" id="Fill-11"></path>
                    <path d="M58.4393746,12.3498963 C55.9077495,12.3498963 54.7087185,10.7410698 54.7087185,8.58736725 C54.7087185,6.66132879 56.1657689,4.88554866 58.5456178,4.88554866 C60.3517532,4.88554866 61.2168768,5.65960666 61.2168768,6.69016625 C61.2168768,7.357981 60.8966293,7.81330924 60.0937338,7.81330924 C59.623228,7.81330924 58.8962206,7.5552899 58.8962206,6.90265276 C58.8962206,6.31072605 59.1390623,6.25001562 59.1390623,5.96315882 C59.0935295,5.61407384 59.0176414,5.43194254 58.5456178,5.43194254 C57.7867374,5.43194254 57.0764254,6.22117816 57.0764254,8.4963016 C57.0764254,10.1946759 57.9081583,11.3481741 58.9857685,11.3481741 C59.972313,11.3481741 60.5020115,10.8169579 60.9892127,9.96852958 L61.4900738,10.3312744 C60.9588575,11.4544174 59.864552,12.3498963 58.4393746,12.3498963" id="Fill-13"></path>
                    <path d="M66.4549729,12.121625 L66.4549729,11.6511192 C66.6659417,11.6359416 66.8495907,11.6055864 67.0150266,11.5448759 C67.2290309,11.4553281 67.2882236,11.2109686 67.2882236,10.878579 L67.2882236,7.49549013 C67.2882236,6.493768 66.8647683,5.94889187 66.3623895,5.94889187 C65.4972658,5.94889187 65.0297955,6.56965604 64.8916793,6.91874102 L64.8916793,10.8026909 C64.8916793,11.1365983 64.9675673,11.347567 65.1952314,11.4689879 C65.3606674,11.5767489 65.559494,11.6359416 65.7552852,11.6511192 L65.7552852,12.121625 L61.6618843,12.121625 L61.6618843,11.6511192 C61.9335635,11.6359416 62.1156948,11.6055864 62.3281813,11.5448759 C62.6165558,11.4553281 62.7227991,11.2109686 62.7227991,10.878579 L62.7227991,2.53544783 C62.7227991,2.24555552 62.5558454,1.82210026 62.3130037,1.65514657 C62.1293546,1.53220794 61.5541233,1.45783766 61.2824441,1.44266006 L61.2824441,0.987331816 L64.785436,0.80520052 L64.8916793,0.911443776 L64.8916793,6.12950541 L64.9220345,6.12950541 C65.4972658,5.56945167 66.1058879,4.88494155 67.4096444,4.88494155 C68.821162,4.88494155 69.4722814,5.84113086 69.4722814,7.28300362 L69.4722814,10.8178685 C69.4722814,11.1502581 69.5648648,11.3627446 69.8380617,11.4841655 C70.0490305,11.5767489 70.2311618,11.6359416 70.5043587,11.6511192 L70.5043587,12.121625 L66.4549729,12.121625 Z" id="Fill-15"></path>
                    <path d="M73.1190053,3.58118502 C72.3904801,3.58118502 71.7985534,3.00443592 71.7985534,2.2774285 C71.7985534,1.54890331 72.3904801,0.972154208 73.1190053,0.972154208 C73.8460127,0.972154208 74.4379394,1.54890331 74.4379394,2.2774285 C74.4379394,3.00443592 73.8460127,3.58118502 73.1190053,3.58118502 L73.1190053,3.58118502 Z M71.0700282,12.121625 L71.0700282,11.6511192 C71.3432251,11.6359416 71.5238386,11.6055864 71.7378429,11.5448759 C72.0246997,11.4538103 72.1461206,11.2109686 72.1461206,10.878579 L72.1461206,6.64554408 C72.1172831,6.32681431 71.9958623,6.05361737 71.7530205,5.88818144 C71.5708892,5.76524282 71.115561,5.64382195 70.842364,5.6301621 L70.842364,5.17483386 L74.2102753,4.99270257 L74.3165185,5.09742806 L74.3165185,10.7859955 C74.3165185,11.1214207 74.453117,11.3627446 74.7263139,11.4689879 C74.9539781,11.5600536 75.119414,11.6359416 75.3926109,11.6511192 L75.3926109,12.121625 L71.0700282,12.121625 Z" id="Fill-17"></path>
                    <path d="M78.9913736,12.3187822 C77.5191456,12.3187822 76.8209756,11.5447242 76.8209756,10.1650796 L76.8209756,5.81062386 L75.5172191,5.81062386 L75.5172191,5.11397166 L76.8513308,5.11397166 L76.8513308,2.95875132 L78.976196,2.95875132 L78.976196,5.11397166 L80.9781225,5.11397166 L80.9781225,5.81062386 L78.9913736,5.81062386 L78.9913736,9.90706026 C78.9913736,10.7706662 79.127972,11.3018824 79.8868524,11.3018824 C80.416551,11.3018824 80.5986823,10.7418287 80.6290375,10.074014 L81.2057866,10.074014 C81.1450761,11.3018824 80.6609104,12.3187822 78.9913736,12.3187822" id="Fill-19"></path>
                    <path d="M85.1988635,5.44727193 C84.4839981,5.44727193 83.9846548,6.22132994 83.9542996,7.76792819 L86.2597783,7.73757298 C86.2597783,6.55371955 86.077647,5.44727193 85.1988635,5.44727193 M85.4568828,12.350048 C82.8311566,12.350048 81.6321256,10.6805112 81.6321256,8.57234142 C81.6321256,6.6447852 82.9844505,4.88570043 85.2899291,4.88570043 C87.6864734,4.88570043 88.5515971,6.28204037 88.5515971,7.88934906 L88.5515971,8.31432208 L83.9542996,8.31432208 C83.9542996,10.2858934 84.6524696,11.3619858 86.2157632,11.3619858 C87.1264197,11.3619858 87.7471838,10.9081753 88.2465271,10.0582292 L88.7473882,10.4224918 C88.1402839,11.4985842 86.927593,12.350048 85.4568828,12.350048" id="Fill-21"></path>
                    <path d="M93.1507158,12.3498963 C90.6175731,12.3498963 89.4200598,10.7410698 89.4200598,8.58736725 C89.4200598,6.66132879 90.8755924,4.88554866 93.2569591,4.88554866 C95.0615767,4.88554866 95.9267004,5.65960666 95.9267004,6.69016625 C95.9267004,7.357981 95.6079706,7.81330924 94.8035574,7.81330924 C94.3345693,7.81330924 93.6060441,7.5552899 93.6060441,6.90265276 C93.6060441,6.31072605 93.8488858,6.25001562 93.8488858,5.96315882 C93.8048708,5.61407384 93.727465,5.43194254 93.2569591,5.43194254 C92.4980787,5.43194254 91.7862489,6.22117816 91.7862489,8.4963016 C91.7862489,10.1946759 92.6194996,11.3481741 93.6971097,11.3481741 C94.6836543,11.3481741 95.2133528,10.8169579 95.6990362,9.96852958 L96.1998973,10.3312744 C95.668681,11.4544174 94.5758932,12.3498963 93.1507158,12.3498963" id="Fill-23"></path>
                    <path d="M99.7212541,12.3187822 C98.2505439,12.3187822 97.5523739,11.5447242 97.5523739,10.1650796 L97.5523739,5.81062386 L96.2486174,5.81062386 L96.2486174,5.11397166 L97.5842469,5.11397166 L97.5842469,2.95875132 L99.7060765,2.95875132 L99.7060765,5.11397166 L101.711039,5.11397166 L101.711039,5.81062386 L99.7212541,5.81062386 L99.7212541,9.90706026 C99.7212541,10.7706662 99.8593704,11.3018824 100.616733,11.3018824 C101.147949,11.3018824 101.331598,10.7418287 101.360436,10.074014 L101.937185,10.074014 C101.876474,11.3018824 101.390791,12.3187822 99.7212541,12.3187822" id="Fill-25"></path>
                    <path d="M107.733969,12.1823355 L107.629243,12.0760922 L107.629243,11.1502581 L107.582193,11.1502581 C107.006961,11.7270072 106.415035,12.3341116 105.10976,12.3341116 C103.699761,12.3341116 103.123011,11.2868566 103.123011,9.86167922 L103.123011,6.61518886 C103.123011,6.23574866 102.971235,6.02326215 102.728394,5.85630846 C102.546262,5.7348876 102.22905,5.65899956 101.954336,5.64382195 L101.954336,5.19001147 L105.232699,4.99270257 L105.307069,5.09742806 L105.307069,9.831324 C105.307069,10.8315284 105.718382,11.347567 106.202548,11.347567 C107.037317,11.347567 107.460772,10.7252851 107.612548,10.4232507 L107.612548,6.56965604 C107.582193,6.25092627 107.475949,5.99290694 107.249803,5.82747101 C107.096509,5.70453238 106.75046,5.67417717 106.399857,5.65899956 L106.399857,5.19001147 L109.675185,4.99270257 L109.782946,5.09742806 L109.782946,10.6205596 C109.811783,10.9392894 109.933204,11.1806134 110.176046,11.347567 C110.358177,11.4689879 110.676907,11.4993431 110.950104,11.5160385 L110.950104,11.969849 L107.733969,12.1823355 Z" id="Fill-27"></path>
                    <path d="M116.962106,7.69279903 C116.341342,7.69279903 115.840481,7.40442448 115.840481,6.72143212 C115.840481,6.38752474 115.930029,6.08397258 115.961902,5.97772933 C115.278909,5.99290694 114.808404,6.55447843 114.671805,6.76696494 L114.671805,10.8026909 C114.671805,11.1365983 114.825099,11.347567 115.096778,11.4689879 C115.341138,11.5767489 115.855659,11.6359416 116.0985,11.6511192 L116.0985,12.121625 L111.440492,12.121625 L111.440492,11.6511192 C111.715207,11.6359416 111.895821,11.6055864 112.109825,11.5448759 C112.396682,11.4553281 112.502925,11.2109686 112.502925,10.878579 L112.502925,6.64554408 C112.47257,6.32681431 112.335971,6.0096023 112.09313,5.84113086 C111.910998,5.71970999 111.608964,5.64382195 111.335767,5.6301621 L111.335767,5.17483386 L114.56708,4.99270257 L114.671805,5.09742806 L114.671805,6.1143278 L114.703678,6.1143278 C115.341138,5.32509218 115.992257,4.91681453 116.73596,4.91681453 C117.540373,4.91681453 118.100427,5.50874124 118.100427,6.37234714 C118.100427,7.09935456 117.645099,7.69279903 116.962106,7.69279903" id="Fill-29"></path>
                    <path d="M122.169088,5.44727193 C121.455741,5.44727193 120.95488,6.22132994 120.926042,7.76792819 L123.231521,7.73757298 C123.231521,6.55371955 123.047872,5.44727193 122.169088,5.44727193 M122.427107,12.350048 C119.801381,12.350048 118.603868,10.6805112 118.603868,8.57234142 C118.603868,6.6447852 119.954675,4.88570043 122.260154,4.88570043 C124.658216,4.88570043 125.521822,6.28204037 125.521822,7.88934906 L125.521822,8.31432208 L120.926042,8.31432208 C120.926042,10.2858934 121.622694,11.3619858 123.185988,11.3619858 C124.096644,11.3619858 124.717409,10.9081753 125.21827,10.0582292 L125.719131,10.4224918 C125.110509,11.4985842 123.899335,12.350048 122.427107,12.350048" id="Fill-31"></path>
                    <path d="M134.17321,2.18499686 C133.597979,2.18499686 133.292909,2.6251475 133.292909,3.23225182 C133.292909,3.70275766 133.520573,4.29468438 134.265793,5.43300498 C134.901735,4.85625587 135.234125,4.17326351 135.234125,3.50544876 C135.234125,2.68585793 134.795492,2.18499686 134.17321,2.18499686 L134.17321,2.18499686 Z M132.7025,7.05549127 C132.080218,7.53965697 131.807021,8.20898948 131.807021,8.98152973 C131.807021,10.1942206 132.808743,11.0896995 134.021434,11.0896995 C134.49194,11.0896995 134.886558,10.9682786 135.387419,10.5888384 C134.446407,9.40650275 133.429507,8.07087325 132.7025,7.05549127 L132.7025,7.05549127 Z M136.630465,12.1217768 C136.372445,11.8182247 136.070411,11.4691397 135.766859,11.0745219 C134.658894,12.0610664 133.808947,12.3646186 132.732855,12.3646186 C131.093673,12.3646186 129.759562,11.4387845 129.759562,9.81478041 C129.759562,8.48066866 130.655041,7.57152994 132.368592,6.58346766 C131.564179,5.44666482 131.199917,4.62707399 131.199917,3.88488896 C131.199917,2.48854902 132.382252,1.54905509 133.900013,1.54905509 C135.311531,1.54905509 136.191832,2.26240266 136.191832,3.41438311 C136.191832,4.27950677 135.797214,5.12793506 134.613361,5.94752589 C135.476967,7.20726735 136.008183,7.91909717 136.859647,8.96635212 C137.43336,8.10122846 137.827978,7.17691214 137.827978,6.67605107 C137.827978,6.37249891 137.360508,6.23590044 136.615287,6.06894675 L136.615287,5.56808569 L140.893855,5.56808569 L140.893855,6.06894675 C140.027213,6.1600124 139.376094,6.22072283 138.981476,6.6441781 C138.586858,7.08584649 138.102693,8.31371498 137.267924,9.46721318 C138.133048,10.528128 138.602036,10.953101 138.981476,11.1655875 C139.391272,11.3932516 140.438527,11.5602053 141.044113,11.5905605 L141.044113,12.1217768 L136.630465,12.1217768 Z" id="Fill-33"></path>
                    <path d="M4.78865513,20.5157605 L4.21190603,20.5157605 L4.21190603,25.1434132 L4.50028058,25.1434132 C6.21383252,25.1434132 6.86646967,24.2327567 6.86646967,22.8682898 C6.86646967,21.3353514 6.32007578,20.5157605 4.78865513,20.5157605 M4.94194897,25.7808727 L4.21190603,25.7808727 L4.21190603,28.7981812 C4.21190603,29.1320886 4.33332689,29.3901079 4.68392964,29.541884 C4.86454317,29.6177721 5.54601777,29.7391929 5.82073248,29.7543705 L5.82073248,30.2704092 L0.0107441332,30.2704092 L0.0107441332,29.7543705 C0.283941077,29.7391929 1.0109485,29.6633049 1.20977517,29.5874168 C1.57403776,29.4508184 1.67876325,29.1776214 1.67876325,28.843714 L1.67876325,21.426417 C1.67876325,21.0925096 1.58921537,20.8344903 1.20977517,20.6827142 C0.919882853,20.5612934 0.283941077,20.4398725 0.0107441332,20.4246949 L0.0107441332,19.910174 L5.60824597,19.910174 C8.26129184,19.910174 9.58174374,20.7586023 9.58174374,22.4888496 C9.58174374,24.7928105 7.3066203,25.7808727 4.94194897,25.7808727" id="Fill-35"></path>
                    <path d="M15.5492757,25.8412796 C14.9285115,25.8412796 14.4276504,25.5529051 14.4276504,24.8699127 C14.4276504,24.5360053 14.5171983,24.2324532 14.5490713,24.1262099 C13.8660789,24.1413875 13.3955731,24.702959 13.2589746,24.9154455 L13.2589746,28.9511715 C13.2589746,29.2850789 13.4107507,29.4960476 13.6839476,29.6174685 C13.9267894,29.7252295 14.442828,29.7844222 14.6856698,29.7995998 L14.6856698,30.2701056 L10.0276619,30.2701056 L10.0276619,29.7995998 C10.3008588,29.7844222 10.4814723,29.754067 10.6954766,29.6933565 C10.9823334,29.6038087 11.0900944,29.3594492 11.0900944,29.0270595 L11.0900944,24.7940247 C11.0597392,24.4752949 10.9231407,24.1580829 10.680299,23.9896114 C10.4981677,23.8681906 10.1946156,23.7923025 9.92141861,23.7786427 L9.92141861,23.3233145 L13.1527314,23.1411832 L13.2589746,23.2459087 L13.2589746,24.2628084 L13.2893298,24.2628084 C13.9267894,23.4735728 14.5779087,23.0652951 15.3231293,23.0652951 C16.1260248,23.0652951 16.6860785,23.6572218 16.6860785,24.5208277 C16.6860785,25.2478352 16.232268,25.8412796 15.5492757,25.8412796" id="Fill-37"></path>
                    <path d="M21.0897097,23.5646384 C19.8603234,23.5646384 19.6038219,25.2341753 19.6038219,26.6745303 C19.6038219,28.4654881 19.9680845,29.9665535 21.0897097,29.9665535 C22.1506245,29.9665535 22.5300647,28.5110209 22.5300647,26.7048855 C22.5300647,25.1279321 22.2416901,23.5646384 21.0897097,23.5646384 M21.0138216,30.4977698 C18.9193117,30.4977698 17.1905822,29.1014298 17.1905822,26.765596 C17.1905822,24.5663606 18.6931654,23.0334221 21.0730143,23.0334221 C23.5014316,23.0334221 24.9417866,24.5815382 24.9417866,26.7200631 C24.9417866,28.8297506 23.6076749,30.4977698 21.0138216,30.4977698" id="Fill-39"></path>
                    <path d="M27.9507474,21.7296656 C27.2222222,21.7296656 26.6318132,21.1529165 26.6318132,20.4259091 C26.6318132,19.6973839 27.2222222,19.1206348 27.9507474,19.1206348 C28.6777548,19.1206348 29.2696815,19.6973839 29.2696815,20.4259091 C29.2696815,21.1529165 28.6777548,21.7296656 27.9507474,21.7296656 M28.2087667,32.6059395 C27.5864848,33.2722365 26.8124268,33.7275647 25.7363344,33.7275647 C24.0971527,33.7275647 23.7328901,32.9702021 23.7328901,32.2583723 C23.7328901,31.8470591 24.1123303,31.194422 24.812018,31.194422 C25.2794884,31.194422 25.9017703,31.4524413 25.9017703,32.1506113 C25.9017703,32.5300515 25.8122224,32.8487812 25.7363344,33.1371558 C25.795527,33.1523334 25.8729328,33.167511 25.9017703,33.167511 C26.7820716,33.167511 26.9793805,32.1354337 26.9793805,30.0424415 L26.9793805,24.8850903 C26.9490253,24.5663606 26.8276044,24.2628084 26.5695851,24.0806771 C26.3889715,23.9592562 25.5845583,23.7923025 25.3113613,23.7786427 L25.3113613,23.3233145 L29.057195,23.1411832 L29.1634383,23.2459087 L29.1634383,29.5567581 C29.1634383,30.8149818 28.9221143,31.8318815 28.2087667,32.6059395" id="Fill-41"></path>
                    <path d="M34.2634181,23.5957525 C33.5500705,23.5957525 33.0492095,24.3698105 33.020372,25.9164088 L35.3258507,25.8860536 C35.3258507,24.7022001 35.1422016,23.5957525 34.2634181,23.5957525 M34.5214374,30.4985286 C31.8957113,30.4985286 30.698198,28.8289918 30.698198,26.720822 C30.698198,24.7932658 32.0490051,23.034181 34.3544837,23.034181 C36.7525458,23.034181 37.6161517,24.430521 37.6161517,26.0378297 L37.6161517,26.4628027 L33.020372,26.4628027 C33.020372,28.434374 33.7170242,29.5104664 35.2803178,29.5104664 C36.1909743,29.5104664 36.8117385,29.0566559 37.3125996,28.2067098 L37.8134606,28.5709724 C37.2048385,29.6470648 35.9936654,30.4985286 34.5214374,30.4985286" id="Fill-43"></path>
                    <path d="M42.2152705,30.4983769 C39.6836455,30.4983769 38.4846144,28.8895504 38.4846144,26.7358478 C38.4846144,24.8098094 39.9416648,23.0340292 42.3215137,23.0340292 C44.1276491,23.0340292 44.9927728,23.8080873 44.9927728,24.8386468 C44.9927728,25.5064616 44.6725252,25.9617898 43.8696298,25.9617898 C43.3991239,25.9617898 42.6721165,25.7037705 42.6721165,25.0511334 C42.6721165,24.4592066 42.9149582,24.3984962 42.9149582,24.1116394 C42.8694254,23.7625544 42.7935374,23.5804231 42.3215137,23.5804231 C41.5626333,23.5804231 40.8523213,24.3696588 40.8523213,26.6447822 C40.8523213,28.3431565 41.6840542,29.4966547 42.7616644,29.4966547 C43.7482089,29.4966547 44.2779074,28.9654385 44.7651086,28.1170102 L45.2659697,28.479755 C44.7347534,29.602898 43.6404479,30.4983769 42.2152705,30.4983769" id="Fill-45"></path>
                    <path d="M48.7873265,30.4672628 C47.3166163,30.4672628 46.6184463,29.6932048 46.6184463,28.3135602 L46.6184463,23.9591045 L45.3146898,23.9591045 L45.3146898,23.2624523 L46.6503193,23.2624523 L46.6503193,21.1072319 L48.7721489,21.1072319 L48.7721489,23.2624523 L50.7771109,23.2624523 L50.7771109,23.9591045 L48.7873265,23.9591045 L48.7873265,28.0555409 C48.7873265,28.9191468 48.9254428,29.450363 49.6828054,29.450363 C50.2140217,29.450363 50.3976707,28.8903093 50.4265082,28.2224945 L51.0032573,28.2224945 C50.9425469,29.450363 50.4568634,30.4672628 48.7873265,30.4672628" id="Fill-47"></path>
                    <path d="M62.9451511,30.2701056 L62.9451511,29.754067 C63.218348,29.7388894 64.0075836,29.6781789 64.2200701,29.5719357 C64.5691551,29.3898044 64.7209312,29.131785 64.7209312,28.7978777 L64.7209312,21.1073837 L61.1860663,30.103152 L60.4287036,30.103152 C60.3361202,29.7844222 59.8200816,28.3744224 59.6850009,27.9949822 L57.0911476,20.9556076 L57.0911476,27.2361018 C57.0911476,28.4958433 57.2717612,29.0270595 57.6056686,29.2987387 C57.8636879,29.5112252 58.789522,29.7388894 59.0612012,29.754067 L59.0612012,30.2701056 L54.404711,30.2701056 L54.404711,29.754067 C54.6627304,29.7252295 55.451966,29.6478237 55.8162286,29.3898044 C56.1804912,29.131785 56.3170896,28.5565537 56.3170896,27.3119898 L56.3170896,22.0787506 C56.3170896,21.4564687 56.1501359,21.048191 55.845066,20.8053493 C55.4823212,20.515457 54.8903945,20.4395689 54.4821168,20.4259091 L54.4821168,19.9098704 L59.2129772,19.9098704 L61.7764752,26.7519361 L63.9316956,21.1984493 C64.1441821,20.6520554 64.2489076,20.0753063 64.2656029,19.9098704 L68.8006722,19.9098704 L68.8006722,20.4259091 C68.5274753,20.4395689 67.9522439,20.515457 67.679047,20.6080404 C67.2996068,20.7294613 67.2085411,21.016318 67.2085411,21.3502254 L67.2085411,28.7978777 C67.2085411,29.131785 67.329962,29.3746268 67.679047,29.5430982 C67.8596605,29.6326461 68.5426529,29.7388894 68.8158498,29.754067 L68.8158498,30.2701056 L62.9451511,30.2701056 Z" id="Fill-49"></path>
                    <path d="M71.7064253,28.3284343 C71.7064253,29.0873147 72.0706879,29.421222 72.5260161,29.421222 C73.0420548,29.421222 73.2848965,29.1783803 73.5262205,28.8596505 L73.5869309,26.3720406 C72.5108385,26.7803182 71.7064253,27.1460986 71.7064253,28.3284343 M75.3323558,30.4821368 C74.3458113,30.4821368 73.9056607,30.0723414 73.6021085,29.4819325 L73.5580934,29.4819325 C73.0572324,30.0268086 72.4653057,30.4988322 71.2662746,30.4988322 C70.2205374,30.4988322 69.4161242,29.7536116 69.4161242,28.7534073 C69.4161242,27.448133 70.1583093,26.9928047 70.9323673,26.705948 C71.8126685,26.3720406 72.996522,26.083666 73.5717533,25.7649363 L73.5717533,25.0819439 C73.5717533,24.5810828 73.5110429,23.5505233 72.6322594,23.5505233 C72.2391593,23.5505233 72.0099774,23.7022993 71.8597191,23.8388978 C71.873379,24.0650442 72.0539925,24.4308245 72.0539925,24.8391022 C72.0539925,25.1730095 71.6457148,25.7042258 70.8428194,25.7042258 C70.0384062,25.7042258 69.7500316,25.1881872 69.7500316,24.6888439 C69.7500316,23.7326545 71.4028731,23.0344846 72.7385026,23.0344846 C74.4065217,23.0344846 75.7573288,23.3061638 75.7573288,25.3551408 C75.7573288,26.7347854 75.6647454,28.3284343 75.6647454,28.8292953 C75.6647454,29.0114266 75.7254559,29.5274653 76.2111393,29.5274653 C76.6072749,29.5274653 76.7423556,28.8733104 76.7575332,28.3132566 L77.3039271,28.3132566 C77.2416989,29.7536116 76.6072749,30.4821368 75.3323558,30.4821368" id="Fill-51"></path>
                    <path d="M82.2685227,30.2701056 L82.2685227,29.7995998 C82.4810092,29.7844222 82.6646583,29.754067 82.8300942,29.6933565 C83.0425807,29.6038087 83.1032911,29.3594492 83.1032911,29.0270595 L83.1032911,25.6439707 C83.1032911,24.6422486 82.6798359,24.0973725 82.177457,24.0973725 C81.3123334,24.0973725 80.8433453,24.7181366 80.7067468,25.0672216 L80.7067468,28.9511715 C80.7067468,29.2850789 80.7826349,29.4960476 81.010299,29.6174685 C81.1757349,29.7252295 81.3745616,29.7844222 81.5703527,29.7995998 L81.5703527,30.2701056 L77.4754341,30.2701056 L77.4754341,29.7995998 C77.748631,29.7844222 77.9307623,29.754067 78.1432488,29.6933565 C78.4316234,29.6038087 78.5378666,29.3594492 78.5378666,29.0270595 L78.5378666,24.7940247 C78.5059937,24.4752949 78.3709129,24.1580829 78.1265535,23.9896114 C77.9444222,23.8681906 77.6423878,23.7923025 77.3691908,23.7786427 L77.3691908,23.3233145 L80.6005036,23.1411832 L80.7067468,23.2459087 L80.7067468,24.277986 L80.737102,24.277986 C81.3123334,23.7179323 81.8906002,23.0334221 83.1943568,23.0334221 C84.6058743,23.0334221 85.2873489,23.9896114 85.2873489,25.4314842 L85.2873489,28.9663491 C85.2873489,29.2987387 85.3784146,29.5112252 85.6516115,29.6326461 C85.8625803,29.7252295 86.0462293,29.7844222 86.3194263,29.7995998 L86.3194263,30.2701056 L82.2685227,30.2701056 Z" id="Fill-53"></path>
                    <path d="M89.3133612,28.3284343 C89.3133612,29.0873147 89.676106,29.421222 90.1314343,29.421222 C90.647473,29.421222 90.8903147,29.1783803 91.1331564,28.8596505 L91.1923491,26.3720406 C90.1162567,26.7803182 89.3133612,27.1460986 89.3133612,28.3284343 M92.9392918,30.4821368 C91.9512295,30.4821368 91.5125966,30.0723414 91.2090445,29.4819325 L91.1635116,29.4819325 C90.6626506,30.0268086 90.0722416,30.4988322 88.8732106,30.4988322 C87.8259556,30.4988322 87.0215424,29.7536116 87.0215424,28.7534073 C87.0215424,27.448133 87.7652452,26.9928047 88.5393032,26.705948 C89.4196045,26.3720406 90.6034579,26.083666 91.1786892,25.7649363 L91.1786892,25.0819439 C91.1786892,24.5810828 91.1179788,23.5505233 90.2376775,23.5505233 C89.8445775,23.5505233 89.6153956,23.7022993 89.4651373,23.8388978 C89.4787971,24.0650442 89.6609284,24.4308245 89.6609284,24.8391022 C89.6609284,25.1730095 89.251133,25.7042258 88.4482376,25.7042258 C87.6438243,25.7042258 87.3569675,25.1881872 87.3569675,24.6888439 C87.3569675,23.7326545 89.0098091,23.0344846 90.3454386,23.0344846 C92.0134577,23.0344846 93.362747,23.3061638 93.362747,25.3551408 C93.362747,26.7347854 93.2716814,28.3284343 93.2716814,28.8292953 C93.2716814,29.0114266 93.3323918,29.5274653 93.8180753,29.5274653 C94.2142108,29.5274653 94.3492916,28.8733104 94.3644692,28.3132566 L94.910863,28.3132566 C94.8486349,29.7536116 94.2142108,30.4821368 92.9392918,30.4821368" id="Fill-55"></path>
                    <path d="M98.5562209,23.5646384 C97.7821629,23.5646384 97.5833363,24.3842293 97.5833363,25.3404186 C97.5833363,26.3724959 97.933939,27.1298585 98.5713985,27.1298585 C99.298406,27.1298585 99.5716029,26.3117855 99.5716029,25.3859514 C99.5716029,24.4297621 99.3287612,23.5646384 98.5562209,23.5646384 M100.133174,30.5433026 C99.8447999,30.4977698 98.9341434,30.4674145 97.8125181,30.4674145 C97.4619154,30.6783833 97.0232825,31.0730011 97.0232825,31.8637545 C97.0232825,32.469341 97.5696764,33.1826886 98.9189658,33.1826886 C100.055769,33.1826886 100.829827,32.6378125 100.829827,31.5450247 C100.829827,31.2111173 100.693228,30.7406115 100.133174,30.5433026 M102.104746,23.5342832 C101.802711,23.5342832 101.603885,23.4599129 101.436931,23.1093102 C101.286673,23.1411832 101.057491,23.4128623 100.951247,23.7179323 C101.512819,24.1580829 101.755661,24.8092023 101.755661,25.4163066 C101.755661,26.7519361 100.29861,27.6307196 98.707997,27.6307196 L97.6440467,27.6307196 C97.508966,27.7521405 97.3116571,27.9190942 97.3116571,28.1315807 C97.3116571,28.7538626 97.9931317,28.7219896 98.8294179,28.7538626 C99.3135836,28.7690402 100.28495,28.8297506 100.649213,28.8449283 C101.603885,28.8904611 102.78622,29.6038087 102.78622,31.028986 C102.78622,32.5300515 101.512819,33.7275647 98.600236,33.7275647 C95.9456724,33.7275647 94.9302904,32.9550245 94.9302904,31.8318815 C94.9302904,31.0578235 95.5981051,30.4218817 97.1750586,30.3308161 L97.1750586,30.2397504 C96.5224215,30.0424415 95.7347036,29.7085341 95.7347036,28.8449283 C95.7347036,27.9949822 96.5831319,27.69143 97.1902362,27.4941211 L97.1902362,27.4182331 C96.0063828,26.9629049 95.3689233,26.2966079 95.3689233,25.3404186 C95.3689233,23.9000636 96.810796,23.0334221 98.5865762,23.0334221 C99.450182,23.0334221 100.22424,23.2777816 100.54297,23.42804 C100.693228,22.3959626 101.286673,21.8662641 101.968147,21.8662641 C102.453831,21.8662641 102.848448,22.1849939 102.848448,22.7313877 C102.848448,23.2018936 102.469008,23.5342832 102.104746,23.5342832" id="Fill-57"></path>
                    <path d="M106.720105,23.5957525 C106.006757,23.5957525 105.507414,24.3698105 105.477058,25.9164088 L107.781019,25.8860536 C107.781019,24.7022001 107.600406,23.5957525 106.720105,23.5957525 M106.978124,30.4985286 C104.353915,30.4985286 103.154884,28.8289918 103.154884,26.720822 C103.154884,24.7932658 104.505691,23.034181 106.812688,23.034181 C109.207714,23.034181 110.072838,24.430521 110.072838,26.0378297 L110.072838,26.4628027 L105.477058,26.4628027 C105.477058,28.434374 106.175228,29.5104664 107.737004,29.5104664 C108.647661,29.5104664 109.269943,29.0566559 109.769286,28.2067098 L110.270147,28.5709724 C109.663043,29.6470648 108.450352,30.4985286 106.978124,30.4985286" id="Fill-59"></path>
                    <path d="M120.073212,30.2701056 L120.073212,29.7995998 C120.285699,29.7844222 120.46783,29.754067 120.634784,29.6933565 C120.84727,29.6038087 120.877625,29.3594492 120.877625,29.0270595 L120.877625,25.6439707 C120.877625,24.6422486 120.498185,24.0973725 119.997324,24.0973725 C119.132201,24.0973725 118.708745,24.6877814 118.572147,25.0368664 L118.572147,28.9511715 C118.572147,29.2850789 118.632857,29.4960476 118.859004,29.6174685 C119.027475,29.7252295 119.179251,29.7844222 119.375042,29.7995998 L119.375042,30.2701056 L115.583676,30.2701056 L115.583676,29.7995998 C115.796162,29.7844222 115.978294,29.754067 116.14373,29.6933565 C116.357734,29.6038087 116.386571,29.3594492 116.386571,29.0270595 L116.386571,25.6439707 C116.386571,24.6422486 116.007131,24.0973725 115.50627,24.0973725 C114.642664,24.0973725 114.217691,24.6877814 114.081093,25.0368664 L114.081093,28.9511715 C114.081093,29.2850789 114.143321,29.4960476 114.369467,29.6174685 C114.537939,29.7252295 114.688197,29.7844222 114.885506,29.7995998 L114.885506,30.2701056 L110.84978,30.2701056 L110.84978,29.7995998 C111.124495,29.7844222 111.306626,29.754067 111.517595,29.6933565 C111.807487,29.6038087 111.912212,29.3594492 111.912212,29.0270595 L111.912212,24.7940247 C111.881857,24.4752949 111.745259,24.1580829 111.502417,23.9896114 C111.320286,23.8681906 111.016734,23.7923025 110.745054,23.7786427 L110.745054,23.3233145 L113.974849,23.1411832 L114.081093,23.2459087 L114.081093,24.2476308 L114.111448,24.2476308 C114.688197,23.6860593 115.219413,23.0334221 116.52317,23.0334221 C117.511232,23.0334221 118.162351,23.535801 118.450726,24.3235188 L118.511436,24.3235188 C119.117023,23.7179323 119.739305,23.0334221 121.044579,23.0334221 C122.454579,23.0334221 123.063201,24.0199667 123.063201,25.4618394 L123.063201,28.9663491 C123.063201,29.2987387 123.151231,29.5112252 123.425946,29.6326461 C123.638432,29.7252295 123.820564,29.7844222 124.092243,29.7995998 L124.092243,30.2701056 L120.073212,30.2701056 Z" id="Fill-61"></path>
                    <path d="M128.3186,23.5957525 C127.603734,23.5957525 127.104391,24.3698105 127.074036,25.9164088 L129.379514,25.8860536 C129.379514,24.7022001 129.197383,23.5957525 128.3186,23.5957525 M128.576619,30.4985286 C125.950893,30.4985286 124.751862,28.8289918 124.751862,26.720822 C124.751862,24.7932658 126.104187,23.034181 128.409665,23.034181 C130.80621,23.034181 131.671333,24.430521 131.671333,26.0378297 L131.671333,26.4628027 L127.074036,26.4628027 C127.074036,28.434374 127.772206,29.5104664 129.335499,29.5104664 C130.246156,29.5104664 130.86692,29.0566559 131.366263,28.2067098 L131.867124,28.5709724 C131.26002,29.6470648 130.047329,30.4985286 128.576619,30.4985286" id="Fill-63"></path>
                    <path d="M137.241364,30.2701056 L137.241364,29.7995998 C137.455368,29.7844222 137.635981,29.754067 137.802935,29.6933565 C138.015422,29.6038087 138.076132,29.3594492 138.076132,29.0270595 L138.076132,25.6439707 C138.076132,24.6422486 137.651159,24.0973725 137.150298,24.0973725 C136.286692,24.0973725 135.816186,24.7181366 135.679588,25.0672216 L135.679588,28.9511715 C135.679588,29.2850789 135.755476,29.4960476 135.981622,29.6174685 C136.150094,29.7252295 136.345885,29.7844222 136.544711,29.7995998 L136.544711,30.2701056 L132.448275,30.2701056 L132.448275,29.7995998 C132.719954,29.7844222 132.903603,29.754067 133.114572,29.6933565 C133.404464,29.6038087 133.50919,29.3594492 133.50919,29.0270595 L133.50919,24.7940247 C133.478835,24.4752949 133.343754,24.1580829 133.099394,23.9896114 C132.918781,23.8681906 132.613711,23.7923025 132.340514,23.7786427 L132.340514,23.3233145 L135.571827,23.1411832 L135.679588,23.2459087 L135.679588,24.277986 L135.708425,24.277986 C136.286692,23.7179323 136.861923,23.0334221 138.16568,23.0334221 C139.577197,23.0334221 140.26019,23.9896114 140.26019,25.4314842 L140.26019,28.9663491 C140.26019,29.2987387 140.351255,29.5112252 140.624452,29.6326461 C140.836939,29.7252295 141.017552,29.7844222 141.292267,29.7995998 L141.292267,30.2701056 L137.241364,30.2701056 Z" id="Fill-65"></path>
                    <path d="M144.90727,30.4672628 C143.435042,30.4672628 142.736872,29.6932048 142.736872,28.3135602 L142.736872,23.9591045 L141.433115,23.9591045 L141.433115,23.2624523 L142.767227,23.2624523 L142.767227,21.1072319 L144.892092,21.1072319 L144.892092,23.2624523 L146.894019,23.2624523 L146.894019,23.9591045 L144.90727,23.9591045 L144.90727,28.0555409 C144.90727,28.9191468 145.043868,29.450363 145.802749,29.450363 C146.332447,29.450363 146.514578,28.8903093 146.544934,28.2224945 L147.121683,28.2224945 C147.060972,29.450363 146.576807,30.4672628 144.90727,30.4672628" id="Fill-67"></path>
                </g>
                <path d="M7.28787879,16.3920303 L22.385,1.12 L26.0289394,1.12 L26.0289394,7.09157576 L16.1376061,17.9639697 L27.0694242,31.5609091 L28.6301515,33.516303 L31.2336061,36.9987879 L21.8636364,36.9987879 L10.9318182,22.8569394 L7.28787879,26.6623333 L7.28787879,36.9987879 L5.55111512e-14,36.9987879 L5.55111512e-14,1.12 L7.28787879,1.12 L7.28787879,16.3920303 Z M26.698303,27.9876061 L36.9607576,1.12 L44.7688788,1.12 L56.2209394,31.1079394 L58.3030303,36.9987879 L50.4937879,36.9987879 L47.8925758,29.5001212 L33.8370606,29.5001212 L32.0969394,34.5130606 L26.698303,27.9876061 Z M35.9180303,23.0755758 L45.8093636,23.0755758 L40.863697,10.2231212 L35.9180303,23.0755758 Z" id="Fill-199"></path>
            </g>
        </g>
    </g>
</svg>