<?xml version="1.0" encoding="UTF-8"?>
<svg width="217px" height="36px" viewBox="0 0 217 36" version="1.1" xmlns="http://www.w3.org/2000/svg" xmlns:xlink="http://www.w3.org/1999/xlink">
    <!-- Generator: Sketch 46 (44423) - http://www.bohemiancoding.com/sketch -->
    <title>logo/blue</title>
    <desc>Created with Sketch.</desc>
    <defs></defs>
    <g id="Symbols" stroke="none" stroke-width="1" fill="none" fill-rule="evenodd">
        <g id="logo/blue" fill="#245595">
            <g id="Group">
                <path d="M112.364961,9 L112.364961,8.6175 C112.837189,8.5725 113.084547,8.4825 113.084547,8.24625 C113.09579,7.86375 112.286256,6.829875 110.948277,5.346 L110.735775,5.346 L110.735775,7.90875 C110.735775,8.15625 110.825723,8.3475 111.084324,8.461125 C111.218122,8.51625 111.555427,8.596125 111.758935,8.6175 L111.758935,9 L107.724759,9 L107.724759,8.6175 C107.927142,8.60625 108.363391,8.5725 108.510681,8.51625 C108.780526,8.415 108.859231,8.213625 108.859231,7.965 L108.859231,2.444625 C108.859231,2.197125 108.791769,2.017125 108.510681,1.8945 C108.285811,1.79325 107.927142,1.713375 107.724759,1.70325 L107.724759,1.32075 L111.892733,1.32075 L111.892733,1.70325 C111.69035,1.713375 111.286707,1.769625 111.084324,1.83825 C110.803236,1.92825 110.735775,2.140875 110.735775,2.388375 L110.735775,4.99725 L110.893184,4.99725 C112.296376,3.772125 113.646723,2.399625 113.646723,1.949625 C113.646723,1.769625 113.309417,1.737 112.803459,1.70325 L112.803459,1.32075 L116.129293,1.32075 L116.129293,1.70325 C115.263541,1.758375 114.837412,1.870875 114.445013,2.253375 C113.375754,3.288375 113.240832,3.479625 112.387448,4.29975 C113.219469,5.277375 114.005391,6.291 115.096013,7.696125 C115.35349,8.022375 115.645821,8.314875 116.039345,8.4825 C116.241728,8.5725 116.477842,8.60625 116.680225,8.6175 L116.680225,9 L112.364961,9 Z" id="Fill-1"></path>
                <path d="M118.584091,7.5607875 C118.584091,8.1232875 118.853936,8.3707875 119.191241,8.3707875 C119.573521,8.3707875 119.752293,8.1907875 119.93219,7.9545375 L119.977164,6.1106625 C119.178874,6.4132875 118.584091,6.6844125 118.584091,7.5607875 M121.270169,9.1571625 C120.53934,9.1571625 120.213278,8.8534125 119.989532,8.4157875 L119.954677,8.4157875 C119.584765,8.8196625 119.146267,9.1695375 118.259153,9.1695375 C117.48335,9.1695375 116.886319,8.6171625 116.886319,7.8757875 C116.886319,6.9082875 117.437252,6.5707875 118.010672,6.3581625 C118.662796,6.1106625 119.539791,5.8969125 119.96592,5.6606625 L119.96592,5.1544125 C119.96592,4.7831625 119.920946,4.0192875 119.268822,4.0192875 C118.977615,4.0192875 118.808962,4.1317875 118.696526,4.2330375 C118.706646,4.4006625 118.842692,4.6717875 118.842692,4.9744125 C118.842692,5.2219125 118.539117,5.6156625 117.944335,5.6156625 C117.347304,5.6156625 117.134801,5.2331625 117.134801,4.8630375 C117.134801,4.1542875 118.360345,3.6367875 119.348651,3.6367875 C120.584314,3.6367875 121.583863,3.8381625 121.583863,5.3569125 C121.583863,6.3795375 121.517526,7.5607875 121.517526,7.9320375 C121.517526,8.0670375 121.561376,8.4495375 121.922293,8.4495375 C122.214625,8.4495375 122.314692,7.9646625 122.325936,7.5495375 L122.730703,7.5495375 C122.685728,8.6171625 122.214625,9.1571625 121.270169,9.1571625" id="Fill-3"></path>
                <path d="M125.060023,9.1461375 C123.970526,9.1461375 123.452199,8.5723875 123.452199,7.5497625 L123.452199,4.3221375 L122.486381,4.3221375 L122.486381,3.8057625 L123.475811,3.8057625 L123.475811,2.2082625 L125.04878,2.2082625 L125.04878,3.8057625 L126.532925,3.8057625 L126.532925,4.3221375 L125.060023,4.3221375 L125.060023,7.3585125 C125.060023,7.9986375 125.161215,8.3923875 125.723391,8.3923875 C126.11579,8.3923875 126.251837,7.9772625 126.274324,7.4822625 L126.700453,7.4822625 C126.656604,8.3923875 126.296811,9.1461375 125.060023,9.1461375" id="Fill-5"></path>
                <path d="M126.860786,9 L126.860786,8.6625 L129.748123,4.221 C128.950957,4.221 128.242615,4.221 127.882822,4.36725 C127.7479,4.424625 127.500542,4.9635 127.389232,5.468625 L127.063169,5.468625 L127.063169,3.78225 L131.637035,3.78225 L131.637035,4.07475 L128.713719,8.56125 C128.984688,8.5725 129.275895,8.5725 129.568226,8.5725 C129.939263,8.5725 130.265325,8.56125 130.545289,8.5275 C130.83762,8.49375 130.98491,8.314875 131.086102,8.08875 C131.164807,7.921125 131.344703,7.313625 131.399796,7.077375 L131.714615,7.077375 L131.714615,9 L126.860786,9 Z" id="Fill-7"></path>
                <path d="M137.810066,3.2650875 L136.786906,5.8964625 L138.855714,5.8964625 L137.810066,3.2650875 Z M138.607232,9.0003375 L138.607232,8.6290875 C139.000755,8.6065875 139.754072,8.4929625 139.754072,8.3028375 C139.754072,8.2240875 139.720341,8.1228375 139.697854,8.0553375 L139.068217,6.4252125 L136.573279,6.4252125 C136.438356,6.7514625 136.282072,7.2239625 136.192123,7.5153375 C136.112294,7.7515875 136.079688,7.9878375 136.079688,8.1453375 C136.079688,8.4828375 136.933072,8.5953375 137.326595,8.6178375 L137.326595,9.0003375 L134.112072,9.0003375 L134.112072,8.6178375 C134.325698,8.6065875 134.663004,8.5379625 134.865388,8.4265875 C135.157719,8.2578375 135.358978,8.0227125 135.506268,7.6615875 C136.282072,5.7277125 137.225403,3.3550875 138.078787,1.1962125 L139.000755,1.1962125 C140.157714,4.1324625 141.180875,6.8189625 141.619372,7.8865875 C141.70932,8.1115875 141.855486,8.2690875 142.125331,8.4265875 C142.327714,8.5379625 142.618921,8.6065875 142.832548,8.6178375 L142.832548,9.0003375 L138.607232,9.0003375 Z" id="Fill-9"></path>
                <path d="M146.927777,5.71725 C146.466792,5.71725 146.095756,5.5035 146.095756,4.99725 C146.095756,4.74975 146.163217,4.52475 146.185704,4.446 C145.68087,4.45725 145.331196,4.8735 145.230005,5.031 L145.230005,8.022375 C145.230005,8.269875 145.34244,8.42625 145.544823,8.51625 C145.72472,8.596125 146.106999,8.64 146.286896,8.65125 L146.286896,9 L142.836259,9 L142.836259,8.65125 C143.038642,8.64 143.173564,8.6175 143.330974,8.5725 C143.544601,8.506125 143.623305,8.325 143.623305,8.078625 L143.623305,4.941 C143.600818,4.70475 143.499626,4.469625 143.31973,4.34475 C143.185932,4.25475 142.959937,4.1985 142.757554,4.188375 L142.757554,3.850875 L145.1513,3.715875 L145.230005,3.7935 L145.230005,4.54725 L145.252492,4.54725 C145.72472,3.96225 146.207067,3.659625 146.759124,3.659625 C147.353906,3.659625 147.769917,4.098375 147.769917,4.7385 C147.769917,5.277375 147.432611,5.71725 146.927777,5.71725" id="Fill-11"></path>
                <path d="M150.906972,9.1692 C149.031552,9.1692 148.143314,7.9767 148.143314,6.380325 C148.143314,4.9527 149.222692,3.63645 150.985677,3.63645 C152.323656,3.63645 152.964537,4.2102 152.964537,4.974075 C152.964537,5.469075 152.727298,5.806575 152.132516,5.806575 C151.783967,5.806575 151.245402,5.615325 151.245402,5.131575 C151.245402,4.692825 151.425298,4.647825 151.425298,4.4352 C151.391568,4.17645 151.33535,4.04145 150.985677,4.04145 C150.423501,4.04145 149.897304,4.62645 149.897304,6.312825 C149.897304,7.5717 150.513449,8.4267 151.311739,8.4267 C152.042568,8.4267 152.434967,8.03295 152.795884,7.404075 L153.16692,7.67295 C152.773397,8.50545 151.962739,9.1692 150.906972,9.1692" id="Fill-13"></path>
                <path d="M156.844902,9 L156.844902,8.65125 C157.001187,8.64 157.137233,8.6175 157.259788,8.5725 C157.418321,8.506125 157.462171,8.325 157.462171,8.078625 L157.462171,5.571 C157.462171,4.8285 157.148477,4.424625 156.776316,4.424625 C156.135435,4.424625 155.789135,4.88475 155.686819,5.1435 L155.686819,8.022375 C155.686819,8.269875 155.743036,8.42625 155.911689,8.51625 C156.034244,8.596125 156.181534,8.64 156.326575,8.65125 L156.326575,9 L153.294197,9 L153.294197,8.65125 C153.495456,8.64 153.630378,8.6175 153.787788,8.5725 C154.001415,8.506125 154.080119,8.325 154.080119,8.078625 L154.080119,1.8945 C154.080119,1.679625 153.95644,1.36575 153.776544,1.242 C153.640497,1.150875 153.214368,1.09575 153.013109,1.0845 L153.013109,0.747 L155.608114,0.612 L155.686819,0.69075 L155.686819,4.5585 L155.709306,4.5585 C156.135435,4.143375 156.586301,3.636 157.552119,3.636 C158.597767,3.636 159.080114,4.34475 159.080114,5.4135 L159.080114,8.033625 C159.080114,8.28 159.148699,8.4375 159.351083,8.5275 C159.507368,8.596125 159.64229,8.64 159.844674,8.65125 L159.844674,9 L156.844902,9 Z" id="Fill-15"></path>
                <path d="M161.781595,2.669625 C161.241906,2.669625 160.803409,2.242125 160.803409,1.70325 C160.803409,1.16325 161.241906,0.73575 161.781595,0.73575 C162.32016,0.73575 162.758658,1.16325 162.758658,1.70325 C162.758658,2.242125 162.32016,2.669625 161.781595,2.669625 L161.781595,2.669625 Z M160.26372,9 L160.26372,8.65125 C160.466103,8.64 160.599901,8.6175 160.758435,8.5725 C160.970937,8.505 161.060885,8.325 161.060885,8.078625 L161.060885,4.941 C161.039523,4.70475 160.949575,4.50225 160.769678,4.379625 C160.634756,4.2885 160.29745,4.1985 160.095067,4.188375 L160.095067,3.850875 L162.590005,3.715875 L162.668709,3.7935 L162.668709,8.01 C162.668709,8.258625 162.769901,8.4375 162.972284,8.51625 C163.140937,8.58375 163.263492,8.64 163.465875,8.65125 L163.465875,9 L160.26372,9 Z" id="Fill-17"></path>
                <path d="M166.131827,9.1461375 C165.041205,9.1461375 164.524003,8.5723875 164.524003,7.5497625 L164.524003,4.3221375 L163.558184,4.3221375 L163.558184,3.8057625 L164.54649,3.8057625 L164.54649,2.2082625 L166.120583,2.2082625 L166.120583,3.8057625 L167.603604,3.8057625 L167.603604,4.3221375 L166.131827,4.3221375 L166.131827,7.3585125 C166.131827,7.9986375 166.233019,8.3923875 166.795195,8.3923875 C167.187594,8.3923875 167.322516,7.9772625 167.345003,7.4822625 L167.772257,7.4822625 C167.727283,8.3923875 167.368615,9.1461375 166.131827,9.1461375" id="Fill-19"></path>
                <path d="M170.730316,4.0528125 C170.200746,4.0528125 169.830834,4.6265625 169.808347,5.7729375 L171.516238,5.7504375 C171.516238,4.8729375 171.381316,4.0528125 170.730316,4.0528125 M170.921455,9.1693125 C168.976326,9.1693125 168.088088,7.9318125 168.088088,6.3691875 C168.088088,4.9404375 169.089885,3.6365625 170.797777,3.6365625 C172.573129,3.6365625 173.21401,4.6715625 173.21401,5.8629375 L173.21401,6.1779375 L169.808347,6.1779375 C169.808347,7.6393125 170.325549,8.4369375 171.483632,8.4369375 C172.158243,8.4369375 172.618103,8.1005625 172.988015,7.4705625 L173.359051,7.7405625 C172.90931,8.5381875 172.010953,9.1693125 170.921455,9.1693125" id="Fill-21"></path>
                <path d="M176.621022,9.1692 C174.744478,9.1692 173.857364,7.9767 173.857364,6.380325 C173.857364,4.9527 174.935618,3.63645 176.699727,3.63645 C178.036582,3.63645 178.677463,4.2102 178.677463,4.974075 C178.677463,5.469075 178.441349,5.806575 177.845442,5.806575 C177.498017,5.806575 176.958328,5.615325 176.958328,5.131575 C176.958328,4.692825 177.138224,4.647825 177.138224,4.4352 C177.105618,4.17645 177.048276,4.04145 176.699727,4.04145 C176.137551,4.04145 175.61023,4.62645 175.61023,6.312825 C175.61023,7.5717 176.227499,8.4267 177.025789,8.4267 C177.756618,8.4267 178.149017,8.03295 178.50881,7.404075 L178.879846,7.67295 C178.486323,8.50545 177.676789,9.1692 176.621022,9.1692" id="Fill-23"></path>
                <path d="M181.488456,9.1461375 C180.398959,9.1461375 179.881756,8.5723875 179.881756,7.5497625 L179.881756,4.3221375 L178.915938,4.3221375 L178.915938,3.8057625 L179.905368,3.8057625 L179.905368,2.2082625 L181.477212,2.2082625 L181.477212,3.8057625 L182.962482,3.8057625 L182.962482,4.3221375 L181.488456,4.3221375 L181.488456,7.3585125 C181.488456,7.9986375 181.590772,8.3923875 182.151824,8.3923875 C182.545347,8.3923875 182.681394,7.9772625 182.702756,7.4822625 L183.13001,7.4822625 C183.085036,8.3923875 182.725244,9.1461375 181.488456,9.1461375" id="Fill-25"></path>
                <path d="M187.424249,9.045 L187.346669,8.96625 L187.346669,8.28 L187.311814,8.28 C186.885684,8.7075 186.447187,9.1575 185.480244,9.1575 C184.435721,9.1575 184.008467,8.38125 184.008467,7.324875 L184.008467,4.9185 C184.008467,4.63725 183.896032,4.47975 183.716135,4.356 C183.581213,4.266 183.346223,4.20975 183.142716,4.1985 L183.142716,3.862125 L185.571317,3.715875 L185.62641,3.7935 L185.62641,7.302375 C185.62641,8.04375 185.931109,8.42625 186.289778,8.42625 C186.908172,8.42625 187.221866,7.965 187.334301,7.741125 L187.334301,4.88475 C187.311814,4.6485 187.233109,4.45725 187.065581,4.334625 C186.952021,4.2435 186.695669,4.221 186.435944,4.20975 L186.435944,3.862125 L188.862296,3.715875 L188.942125,3.7935 L188.942125,7.887375 C188.963488,8.123625 189.053436,8.3025 189.233332,8.42625 C189.368254,8.51625 189.604368,8.53875 189.806752,8.551125 L189.806752,8.8875 L187.424249,9.045 Z" id="Fill-27"></path>
                <path d="M194.260424,5.71725 C193.800564,5.71725 193.429527,5.5035 193.429527,4.99725 C193.429527,4.74975 193.495864,4.52475 193.519476,4.446 C193.013517,4.45725 192.664968,4.8735 192.563776,5.031 L192.563776,8.022375 C192.563776,8.269875 192.677336,8.42625 192.878595,8.51625 C193.059616,8.596125 193.440771,8.64 193.620667,8.65125 L193.620667,9 L190.17003,9 L190.17003,8.65125 C190.373538,8.64 190.507336,8.6175 190.665869,8.5725 C190.878372,8.506125 190.957077,8.325 190.957077,8.078625 L190.957077,4.941 C190.93459,4.70475 190.833398,4.469625 190.653502,4.34475 C190.518579,4.25475 190.294833,4.1985 190.09245,4.188375 L190.09245,3.850875 L192.486196,3.715875 L192.563776,3.7935 L192.563776,4.54725 L192.587388,4.54725 C193.059616,3.96225 193.541963,3.659625 194.092895,3.659625 C194.688802,3.659625 195.103688,4.098375 195.103688,4.7385 C195.103688,5.277375 194.766382,5.71725 194.260424,5.71725" id="Fill-29"></path>
                <path d="M198.117739,4.0528125 C197.589294,4.0528125 197.218258,4.6265625 197.196895,5.7729375 L198.904786,5.7504375 C198.904786,4.8729375 198.768739,4.0528125 198.117739,4.0528125 M198.308879,9.1693125 C196.36375,9.1693125 195.476636,7.9318125 195.476636,6.3691875 C195.476636,4.9404375 196.477309,3.6365625 198.185201,3.6365625 C199.961677,3.6365625 200.601434,4.6715625 200.601434,5.8629375 L200.601434,6.1779375 L197.196895,6.1779375 C197.196895,7.6393125 197.712973,8.4369375 198.871055,8.4369375 C199.545667,8.4369375 200.005527,8.1005625 200.376563,7.4705625 L200.747599,7.7405625 C200.296734,8.5381875 199.399501,9.1693125 198.308879,9.1693125" id="Fill-31"></path>
                <path d="M207.010354,1.6347375 C206.584225,1.6347375 206.35823,1.9609875 206.35823,2.4109875 C206.35823,2.7597375 206.526883,3.1984875 207.07894,4.0422375 C207.550044,3.6147375 207.796277,3.1084875 207.796277,2.6134875 C207.796277,2.0059875 207.471339,1.6347375 207.010354,1.6347375 L207.010354,1.6347375 Z M205.920857,5.2448625 C205.459873,5.6037375 205.257489,6.0998625 205.257489,6.6724875 C205.257489,7.5713625 205.999562,8.2351125 206.897919,8.2351125 C207.246468,8.2351125 207.5388,8.1451125 207.909836,7.8638625 C207.212738,6.9874875 206.459422,5.9974875 205.920857,5.2448625 L205.920857,5.2448625 Z M208.830681,9.0001125 C208.639541,8.7751125 208.415795,8.5163625 208.190924,8.2238625 C207.370147,8.9551125 206.74051,9.1801125 205.943344,9.1801125 C204.729044,9.1801125 203.740738,8.4938625 203.740738,7.2901125 C203.740738,6.3012375 204.404106,5.6273625 205.673499,4.8949875 C205.077593,4.0523625 204.807748,3.4448625 204.807748,2.8947375 C204.807748,1.8597375 205.683619,1.1633625 206.807971,1.1633625 C207.853619,1.1633625 208.505743,1.6921125 208.505743,2.5459875 C208.505743,3.1872375 208.213411,3.8161125 207.336417,4.4236125 C207.976173,5.3573625 208.369696,5.8849875 209.000458,6.6612375 C209.425463,6.0199875 209.717795,5.3348625 209.717795,4.9636125 C209.717795,4.7386125 209.371494,4.6373625 208.819437,4.5136125 L208.819437,4.1423625 L211.988987,4.1423625 L211.988987,4.5136125 C211.346981,4.5811125 210.864634,4.6261125 210.572303,4.9399875 C210.279971,5.2673625 209.921303,6.1774875 209.302909,7.0324875 C209.94379,7.8188625 210.291215,8.1338625 210.572303,8.2913625 C210.875878,8.4601125 211.651681,8.5838625 212.100297,8.6063625 L212.100297,9.0001125 L208.830681,9.0001125 Z" id="Fill-33"></path>
                <path d="M111.162691,15.83235 L110.735437,15.83235 L110.735437,19.262475 L110.949064,19.262475 C112.218458,19.262475 112.70193,18.587475 112.70193,17.5761 C112.70193,16.43985 112.297163,15.83235 111.162691,15.83235 M111.276251,19.734975 L110.735437,19.734975 L110.735437,21.971475 C110.735437,22.218975 110.825385,22.410225 111.085111,22.522725 C111.218909,22.578975 111.723743,22.668975 111.927251,22.680225 L111.927251,23.062725 L107.62323,23.062725 L107.62323,22.680225 C107.825613,22.668975 108.364178,22.612725 108.511468,22.556475 C108.781313,22.455225 108.858893,22.252725 108.858893,22.005225 L108.858893,16.50735 C108.858893,16.25985 108.792556,16.0686 108.511468,15.9561 C108.296717,15.8661 107.825613,15.7761 107.62323,15.76485 L107.62323,15.383475 L111.769841,15.383475 C113.735209,15.383475 114.713396,16.01235 114.713396,17.29485 C114.713396,19.0026 113.027992,19.734975 111.276251,19.734975" id="Fill-35"></path>
                <path d="M119.134124,19.77975 C118.674264,19.77975 118.303228,19.566 118.303228,19.05975 C118.303228,18.81225 118.369565,18.58725 118.393176,18.5085 C117.887218,18.51975 117.538668,18.936 117.437477,19.0935 L117.437477,22.084875 C117.437477,22.332375 117.549912,22.48875 117.752295,22.57875 C117.932192,22.658625 118.314472,22.7025 118.494368,22.71375 L118.494368,23.0625 L115.043731,23.0625 L115.043731,22.71375 C115.246114,22.7025 115.379912,22.68 115.538446,22.635 C115.750948,22.568625 115.830777,22.3875 115.830777,22.141125 L115.830777,19.0035 C115.80829,18.76725 115.707098,18.532125 115.527202,18.40725 C115.39228,18.31725 115.167409,18.261 114.965026,18.250875 L114.965026,17.913375 L117.358772,17.778375 L117.437477,17.856 L117.437477,18.60975 L117.459964,18.60975 C117.932192,18.02475 118.414539,17.722125 118.966596,17.722125 C119.561378,17.722125 119.976264,18.160875 119.976264,18.801 C119.976264,19.339875 119.640083,19.77975 119.134124,19.77975" id="Fill-37"></path>
                <path d="M123.23846,18.09225 C122.327735,18.09225 122.137719,19.32975 122.137719,20.397375 C122.137719,21.724875 122.407564,22.8375 123.23846,22.8375 C124.024382,22.8375 124.30547,21.758625 124.30547,20.419875 C124.30547,19.251 124.091844,18.09225 123.23846,18.09225 M123.182242,23.23125 C121.630636,23.23125 120.349999,22.19625 120.349999,20.464875 C120.349999,18.83475 121.463108,17.6985 123.226092,17.6985 C125.025056,17.6985 126.092066,18.846 126.092066,20.431125 C126.092066,21.994875 125.103761,23.23125 123.182242,23.23125" id="Fill-39"></path>
                <path d="M128.321095,16.732125 C127.781406,16.732125 127.344033,16.304625 127.344033,15.76575 C127.344033,15.22575 127.781406,14.79825 128.321095,14.79825 C128.85966,14.79825 129.298157,15.22575 129.298157,15.76575 C129.298157,16.304625 128.85966,16.732125 128.321095,16.732125 M128.512235,24.793875 C128.05125,25.28775 127.477831,25.62525 126.680665,25.62525 C125.466364,25.62525 125.19652,25.063875 125.19652,24.53625 C125.19652,24.231375 125.477608,23.747625 125.995934,23.747625 C126.342235,23.747625 126.803219,23.938875 126.803219,24.456375 C126.803219,24.737625 126.736882,24.973875 126.680665,25.187625 C126.724515,25.198875 126.781856,25.210125 126.803219,25.210125 C127.455344,25.210125 127.601509,24.445125 127.601509,22.89375 L127.601509,19.071 C127.579022,18.83475 127.489074,18.60975 127.297934,18.47475 C127.164136,18.38475 126.56823,18.261 126.365846,18.250875 L126.365846,17.913375 L129.140748,17.778375 L129.219452,17.856 L129.219452,22.53375 C129.219452,23.466375 129.04068,24.220125 128.512235,24.793875" id="Fill-41"></path>
                <path d="M132.997501,18.1153125 C132.469055,18.1153125 132.098019,18.6890625 132.076656,19.8354375 L133.784548,19.8129375 C133.784548,18.9354375 133.648501,18.1153125 132.997501,18.1153125 M133.188641,23.2318125 C131.243511,23.2318125 130.356397,21.9943125 130.356397,20.4316875 C130.356397,19.0029375 131.357071,17.6990625 133.064962,17.6990625 C134.841439,17.6990625 135.481195,18.7340625 135.481195,19.9254375 L135.481195,20.2404375 L132.076656,20.2404375 C132.076656,21.7018125 132.592734,22.4994375 133.750817,22.4994375 C134.425428,22.4994375 134.885289,22.1630625 135.256325,21.5330625 L135.627361,21.8030625 C135.176496,22.6006875 134.279263,23.2318125 133.188641,23.2318125" id="Fill-43"></path>
                <path d="M138.888208,23.2317 C137.012788,23.2317 136.12455,22.0392 136.12455,20.442825 C136.12455,19.0152 137.203928,17.69895 138.966912,17.69895 C140.304892,17.69895 140.945773,18.2727 140.945773,19.036575 C140.945773,19.531575 140.708534,19.869075 140.113752,19.869075 C139.765203,19.869075 139.226638,19.677825 139.226638,19.194075 C139.226638,18.755325 139.406534,18.710325 139.406534,18.4977 C139.372804,18.23895 139.316586,18.10395 138.966912,18.10395 C138.404736,18.10395 137.878539,18.68895 137.878539,20.375325 C137.878539,21.6342 138.494684,22.4892 139.292975,22.4892 C140.023804,22.4892 140.416203,22.09545 140.77712,21.466575 L141.148156,21.73545 C140.754633,22.56795 139.943975,23.2317 138.888208,23.2317" id="Fill-45"></path>
                <path d="M143.756766,23.2086375 C142.667268,23.2086375 142.150066,22.6348875 142.150066,21.6122625 L142.150066,18.3846375 L141.184248,18.3846375 L141.184248,17.8682625 L142.173678,17.8682625 L142.173678,16.2707625 L143.745522,16.2707625 L143.745522,17.8682625 L145.230792,17.8682625 L145.230792,18.3846375 L143.756766,18.3846375 L143.756766,21.4210125 C143.756766,22.0611375 143.859082,22.4548875 144.420134,22.4548875 C144.813657,22.4548875 144.949704,22.0397625 144.971066,21.5447625 L145.39832,21.5447625 C145.353346,22.4548875 144.993553,23.2086375 143.756766,23.2086375" id="Fill-47"></path>
                <path d="M154.244837,23.0625 L154.244837,22.68 C154.44722,22.66875 155.031883,22.62375 155.189293,22.545 C155.447894,22.41 155.560329,22.21875 155.560329,21.97125 L155.560329,16.270875 L152.941712,22.93875 L152.380661,22.93875 C152.312075,22.7025 151.929795,21.657375 151.829728,21.376125 L149.90821,16.158375 L149.90821,20.813625 C149.90821,21.747375 150.042008,22.141125 150.289365,22.3425 C150.480505,22.5 151.16636,22.66875 151.367619,22.68 L151.367619,23.0625 L147.918106,23.0625 L147.918106,22.68 C148.109246,22.658625 148.693909,22.60125 148.963754,22.41 C149.233598,22.21875 149.33479,21.792375 149.33479,20.869875 L149.33479,16.990875 C149.33479,16.529625 149.211111,16.227 148.985117,16.047 C148.716396,15.832125 148.277899,15.775875 147.975448,15.76575 L147.975448,15.38325 L151.480054,15.38325 L153.379085,20.45475 L154.975666,16.338375 C155.133075,15.933375 155.210655,15.505875 155.223023,15.38325 L158.582588,15.38325 L158.582588,15.76575 C158.380205,15.775875 157.954075,15.832125 157.751692,15.90075 C157.470604,15.99075 157.403142,16.203375 157.403142,16.450875 L157.403142,21.97125 C157.403142,22.21875 157.493091,22.39875 157.751692,22.523625 C157.88549,22.59 158.391448,22.66875 158.593832,22.68 L158.593832,23.0625 L154.244837,23.0625 Z" id="Fill-49"></path>
                <path d="M160.735161,21.6232875 C160.735161,22.1857875 161.005005,22.4332875 161.342311,22.4332875 C161.724591,22.4332875 161.904487,22.2532875 162.083259,22.0170375 L162.128233,20.1731625 C161.331067,20.4757875 160.735161,20.7469125 160.735161,21.6232875 M163.421238,23.2196625 C162.690409,23.2196625 162.364347,22.9159125 162.139477,22.4782875 L162.10687,22.4782875 C161.735834,22.8821625 161.297337,23.2320375 160.409098,23.2320375 C159.63442,23.2320375 159.038513,22.6796625 159.038513,21.9382875 C159.038513,20.9707875 159.588321,20.6332875 160.161741,20.4206625 C160.813865,20.1731625 161.69086,19.9594125 162.11699,19.7231625 L162.11699,19.2169125 C162.11699,18.8456625 162.072016,18.0817875 161.421016,18.0817875 C161.129808,18.0817875 160.960031,18.1942875 160.84872,18.2955375 C160.858839,18.4631625 160.992637,18.7342875 160.992637,19.0369125 C160.992637,19.2844125 160.690187,19.6781625 160.095404,19.6781625 C159.499497,19.6781625 159.28587,19.2956625 159.28587,18.9255375 C159.28587,18.2167875 160.51029,17.6992875 161.49972,17.6992875 C162.735383,17.6992875 163.736057,17.9006625 163.736057,19.4194125 C163.736057,20.4420375 163.667472,21.6232875 163.667472,21.9945375 C163.667472,22.1295375 163.712446,22.5120375 164.072238,22.5120375 C164.365694,22.5120375 164.465762,22.0271625 164.477005,21.6120375 L164.881772,21.6120375 C164.835674,22.6796625 164.365694,23.2196625 163.421238,23.2196625" id="Fill-51"></path>
                <path d="M168.559528,23.0625 L168.559528,22.71375 C168.716938,22.7025 168.852984,22.68 168.975539,22.635 C169.132948,22.568625 169.177922,22.3875 169.177922,22.141125 L169.177922,19.6335 C169.177922,18.891 168.864228,18.487125 168.492067,18.487125 C167.851187,18.487125 167.503762,18.94725 167.40257,19.206 L167.40257,22.084875 C167.40257,22.332375 167.458788,22.48875 167.62744,22.57875 C167.749995,22.658625 167.897285,22.7025 168.042326,22.71375 L168.042326,23.0625 L165.008824,23.0625 L165.008824,22.71375 C165.211207,22.7025 165.34613,22.68 165.503539,22.635 C165.717166,22.568625 165.79587,22.3875 165.79587,22.141125 L165.79587,19.0035 C165.772259,18.76725 165.672192,18.532125 165.491171,18.40725 C165.356249,18.31725 165.132503,18.261 164.930119,18.250875 L164.930119,17.913375 L167.323865,17.778375 L167.40257,17.856 L167.40257,18.621 L167.425057,18.621 C167.851187,18.205875 168.279565,17.6985 169.245383,17.6985 C170.291031,17.6985 170.795865,18.40725 170.795865,19.476 L170.795865,22.096125 C170.795865,22.3425 170.863326,22.5 171.06571,22.59 C171.221995,22.658625 171.358041,22.7025 171.560425,22.71375 L171.560425,23.0625 L168.559528,23.0625 Z" id="Fill-53"></path>
                <path d="M173.778322,21.6232875 C173.778322,22.1857875 174.047042,22.4332875 174.384348,22.4332875 C174.766628,22.4332875 174.946524,22.2532875 175.126421,22.0170375 L175.17027,20.1731625 C174.373105,20.4757875 173.778322,20.7469125 173.778322,21.6232875 M176.4644,23.2196625 C175.732447,23.2196625 175.407509,22.9159125 175.182638,22.4782875 L175.148908,22.4782875 C174.777872,22.8821625 174.340498,23.2320375 173.45226,23.2320375 C172.676457,23.2320375 172.08055,22.6796625 172.08055,21.9382875 C172.08055,20.9707875 172.631483,20.6332875 173.204903,20.4206625 C173.857027,20.1731625 174.734022,19.9594125 175.160151,19.7231625 L175.160151,19.2169125 C175.160151,18.8456625 175.115177,18.0817875 174.463053,18.0817875 C174.171846,18.0817875 174.002068,18.1942875 173.890758,18.2955375 C173.900877,18.4631625 174.035799,18.7342875 174.035799,19.0369125 C174.035799,19.2844125 173.732224,19.6781625 173.137441,19.6781625 C172.541535,19.6781625 172.329032,19.2956625 172.329032,18.9255375 C172.329032,18.2167875 173.553452,17.6992875 174.542882,17.6992875 C175.778545,17.6992875 176.778094,17.9006625 176.778094,19.4194125 C176.778094,20.4420375 176.710633,21.6232875 176.710633,21.9945375 C176.710633,22.1295375 176.755607,22.5120375 177.1154,22.5120375 C177.408856,22.5120375 177.508923,22.0271625 177.520167,21.6120375 L177.924934,21.6120375 C177.878835,22.6796625 177.408856,23.2196625 176.4644,23.2196625" id="Fill-55"></path>
                <path d="M180.625403,18.09225 C180.051983,18.09225 179.904693,18.69975 179.904693,19.4085 C179.904693,20.1735 180.164419,20.734875 180.636647,20.734875 C181.175211,20.734875 181.377595,20.1285 181.377595,19.44225 C181.377595,18.7335 181.197698,18.09225 180.625403,18.09225 M181.793605,23.265 C181.579978,23.23125 180.905367,23.20875 180.07447,23.20875 C179.814745,23.365125 179.489807,23.657625 179.489807,24.24375 C179.489807,24.692625 179.894574,25.221375 180.894123,25.221375 C181.736263,25.221375 182.309683,24.8175 182.309683,24.0075 C182.309683,23.76 182.208491,23.41125 181.793605,23.265 M183.254139,18.06975 C183.030393,18.06975 182.883103,18.014625 182.759424,17.75475 C182.648113,17.778375 182.478336,17.97975 182.399631,18.205875 C182.815641,18.532125 182.995538,19.01475 182.995538,19.46475 C182.995538,20.45475 181.91616,21.106125 180.737838,21.106125 L179.949667,21.106125 C179.8496,21.196125 179.703434,21.319875 179.703434,21.477375 C179.703434,21.938625 180.208268,21.915 180.827787,21.938625 C181.186455,21.949875 181.90604,21.994875 182.175885,22.006125 C182.883103,22.039875 183.758973,22.568625 183.758973,23.625 C183.758973,24.737625 182.815641,25.62525 180.658009,25.62525 C178.691517,25.62525 177.939325,25.052625 177.939325,24.220125 C177.939325,23.646375 178.43404,23.175 179.602242,23.1075 L179.602242,23.04 C179.118771,22.89375 178.535232,22.64625 178.535232,22.006125 C178.535232,21.376125 179.163745,21.151125 179.613486,21.004875 L179.613486,20.948625 C178.736491,20.611125 178.264263,20.11725 178.264263,19.4085 C178.264263,18.340875 179.332398,17.6985 180.64789,17.6985 C181.287647,17.6985 181.861066,17.879625 182.09718,17.991 C182.208491,17.226 182.648113,16.833375 183.152947,16.833375 C183.51274,16.833375 183.805072,17.069625 183.805072,17.474625 C183.805072,17.823375 183.523983,18.06975 183.254139,18.06975" id="Fill-57"></path>
                <path d="M186.673182,18.1153125 C186.144736,18.1153125 185.774824,18.6890625 185.752337,19.8354375 L187.459104,19.8129375 C187.459104,18.9354375 187.325306,18.1153125 186.673182,18.1153125 M186.864322,23.2318125 C184.920317,23.2318125 184.032078,21.9943125 184.032078,20.4316875 C184.032078,19.0029375 185.032752,17.6990625 186.741767,17.6990625 C188.515995,17.6990625 189.156876,18.7340625 189.156876,19.9254375 L189.156876,20.2404375 L185.752337,20.2404375 C185.752337,21.7018125 186.269539,22.4994375 187.426498,22.4994375 C188.101109,22.4994375 188.562094,22.1630625 188.932006,21.5330625 L189.303042,21.8030625 C188.853301,22.6006875 187.954944,23.2318125 186.864322,23.2318125" id="Fill-59"></path>
                <path d="M196.565121,23.0625 L196.565121,22.71375 C196.722531,22.7025 196.857453,22.68 196.981132,22.635 C197.138541,22.568625 197.161028,22.3875 197.161028,22.141125 L197.161028,19.6335 C197.161028,18.891 196.87994,18.487125 196.508904,18.487125 C195.868023,18.487125 195.554328,18.92475 195.453137,19.1835 L195.453137,22.084875 C195.453137,22.332375 195.498111,22.48875 195.665639,22.57875 C195.790442,22.658625 195.902878,22.7025 196.047919,22.71375 L196.047919,23.0625 L193.239287,23.0625 L193.239287,22.71375 C193.396696,22.7025 193.531619,22.68 193.654173,22.635 C193.812707,22.568625 193.834069,22.3875 193.834069,22.141125 L193.834069,19.6335 C193.834069,18.891 193.552981,18.487125 193.181945,18.487125 C192.542189,18.487125 192.22737,18.92475 192.126178,19.1835 L192.126178,22.084875 C192.126178,22.332375 192.172277,22.48875 192.339805,22.57875 C192.464608,22.658625 192.575919,22.7025 192.722085,22.71375 L192.722085,23.0625 L189.732432,23.0625 L189.732432,22.71375 C189.93594,22.7025 190.070862,22.68 190.227147,22.635 C190.441898,22.568625 190.519479,22.3875 190.519479,22.141125 L190.519479,19.0035 C190.496992,18.76725 190.3958,18.532125 190.215904,18.40725 C190.080981,18.31725 189.856111,18.261 189.654852,18.250875 L189.654852,17.913375 L192.047474,17.778375 L192.126178,17.856 L192.126178,18.5985 L192.148665,18.5985 C192.575919,18.18225 192.969442,17.6985 193.935261,17.6985 C194.667215,17.6985 195.149562,18.070875 195.363189,18.65475 L195.408163,18.65475 C195.856779,18.205875 196.317764,17.6985 197.284707,17.6985 C198.32923,17.6985 198.780095,18.42975 198.780095,19.4985 L198.780095,22.096125 C198.780095,22.3425 198.845308,22.5 199.048816,22.59 C199.206225,22.658625 199.341147,22.7025 199.542406,22.71375 L199.542406,23.0625 L196.565121,23.0625 Z" id="Fill-61"></path>
                <path d="M202.673278,18.1153125 C202.143708,18.1153125 201.773796,18.6890625 201.751309,19.8354375 L203.4592,19.8129375 C203.4592,18.9354375 203.324278,18.1153125 202.673278,18.1153125 M202.864418,23.2318125 C200.919288,23.2318125 200.03105,21.9943125 200.03105,20.4316875 C200.03105,19.0029375 201.032848,17.6990625 202.740739,17.6990625 C204.516091,17.6990625 205.156972,18.7340625 205.156972,19.9254375 L205.156972,20.2404375 L201.751309,20.2404375 C201.751309,21.7018125 202.268511,22.4994375 203.426594,22.4994375 C204.101205,22.4994375 204.561065,22.1630625 204.930977,21.5330625 L205.302013,21.8030625 C204.852273,22.6006875 203.953915,23.2318125 202.864418,23.2318125" id="Fill-63"></path>
                <path d="M209.283233,23.0625 L209.283233,22.71375 C209.441766,22.7025 209.575564,22.68 209.699243,22.635 C209.856652,22.568625 209.901626,22.3875 209.901626,22.141125 L209.901626,19.6335 C209.901626,18.891 209.586808,18.487125 209.215772,18.487125 C208.576015,18.487125 208.227466,18.94725 208.126274,19.206 L208.126274,22.084875 C208.126274,22.332375 208.182492,22.48875 208.35002,22.57875 C208.474823,22.658625 208.619865,22.7025 208.767155,22.71375 L208.767155,23.0625 L205.732528,23.0625 L205.732528,22.71375 C205.933787,22.7025 206.069834,22.68 206.226119,22.635 C206.44087,22.568625 206.51845,22.3875 206.51845,22.141125 L206.51845,19.0035 C206.495963,18.76725 206.395896,18.532125 206.214875,18.40725 C206.081077,18.31725 205.855082,18.261 205.652699,18.250875 L205.652699,17.913375 L208.046445,17.778375 L208.126274,17.856 L208.126274,18.621 L208.147637,18.621 C208.576015,18.205875 209.002145,17.6985 209.967963,17.6985 C211.013611,17.6985 211.519569,18.40725 211.519569,19.476 L211.519569,22.096125 C211.519569,22.3425 211.587031,22.5 211.789414,22.59 C211.946823,22.658625 212.080621,22.7025 212.284129,22.71375 L212.284129,23.0625 L209.283233,23.0625 Z" id="Fill-65"></path>
                <path d="M214.962111,23.2086375 C213.87149,23.2086375 213.354288,22.6348875 213.354288,21.6122625 L213.354288,18.3846375 L212.388469,18.3846375 L212.388469,17.8682625 L213.376775,17.8682625 L213.376775,16.2707625 L214.950868,16.2707625 L214.950868,17.8682625 L216.433889,17.8682625 L216.433889,18.3846375 L214.962111,18.3846375 L214.962111,21.4210125 C214.962111,22.0611375 215.063303,22.4548875 215.625479,22.4548875 C216.017878,22.4548875 216.152801,22.0397625 216.175288,21.5447625 L216.602541,21.5447625 C216.557567,22.4548875 216.198899,23.2086375 214.962111,23.2086375" id="Fill-67"></path>
                <path d="M7.87046632,15.3237375 L23.0098705,0.0001125 L26.6640155,0.0001125 L26.6640155,5.9918625 L16.7449793,16.9009875 L27.7074145,30.5438625 L29.272513,32.5058625 L31.8832591,36.0001125 L22.4870466,36.0001125 L11.5246114,21.8104875 L7.87046632,25.6287375 L7.87046632,36.0001125 L0.562176166,36.0001125 L0.562176166,0.0001125 L7.87046632,0.0001125 L7.87046632,15.3237375 Z M27.3352539,26.9584875 L37.6264508,0.0001125 L45.4564404,0.0001125 L56.9405751,30.0893625 L59.0284974,36.0001125 L51.1973834,36.0001125 L48.588886,28.4761125 L34.4940052,28.4761125 L32.7490104,33.5059875 L27.3352539,26.9584875 Z M36.5808031,22.0298625 L46.4998394,22.0298625 L41.5403212,9.1339875 L36.5808031,22.0298625 Z" id="Fill-199"></path>
            </g>
        </g>
    </g>
</svg>