<svg xmlns="http://www.w3.org/2000/svg" width="36" height="36" viewBox="0 0 36 36">
    <g fill="none" fill-rule="evenodd" transform="rotate(-180 18 18)">
        <path fill="#FFF" d="M0 0h36v36H0z" opacity=".4"/>
        <path fill="#2C65B0" d="M18.13 25.556l9-8.928c.905-.9 1.726-.771 2.5 0 .776.77.905 2.1 0 3l-10 10c-.246.245-.762.568-1.5.575-.777.006-1.239-.316-1.5-.575l-10-10c-.903-.9-.775-2.23 0-3 .776-.771 2.097-.9 3 0l8.5 8.928z"/>
        <rect width="24" height="4" x="6" y="8" fill="#2C65B0" rx="2"/>
    </g>
</svg>
